<svg version="1.1" viewBox="0.0 0.0 960.0 720.0" fill="none" stroke="none" stroke-linecap="square" stroke-miterlimit="10" xmlns:xlink="http://www.w3.org/1999/xlink" xmlns="http://www.w3.org/2000/svg"><clipPath id="p.0"><path d="m0 0l960.0 0l0 720.0l-960.0 0l0 -720.0z" clip-rule="nonzero"/></clipPath><g clip-path="url(#p.0)"><path fill="#000000" fill-opacity="0.0" d="m0 0l960.0 0l0 720.0l-960.0 0z" fill-rule="evenodd"/><path fill="#cfe2f3" d="m179.46194 19.606474l0 0c0 -4.8126564 3.9014282 -8.714086 8.714081 -8.714086l83.86316 0c2.3111267 0 4.527588 0.9180889 6.161804 2.5522966c1.6342163 1.6342077 2.5523071 3.8506699 2.5523071 6.161789l0 34.855293c0 4.8126564 -3.9014587 8.714085 -8.714111 8.714085l-83.86316 0c-4.8126526 0 -8.714081 -3.9014282 -8.714081 -8.714085z" fill-rule="evenodd"/><path stroke="#000000" stroke-width="1.0" stroke-linejoin="round" stroke-linecap="butt" d="m179.46194 19.606474l0 0c0 -4.8126564 3.9014282 -8.714086 8.714081 -8.714086l83.86316 0c2.3111267 0 4.527588 0.9180889 6.161804 2.5522966c1.6342163 1.6342077 2.5523071 3.8506699 2.5523071 6.161789l0 34.855293c0 4.8126564 -3.9014587 8.714085 -8.714111 8.714085l-83.86316 0c-4.8126526 0 -8.714081 -3.9014282 -8.714081 -8.714085z" fill-rule="evenodd"/><path fill="#000000" fill-opacity="0.0" d="m209.8982 27.065111l40.41884 0l0 21.452864l-40.41884 0l0 -21.452864z" fill-rule="nonzero"/><path fill="#000099" d="m220.86694 39.26662l1.765625 0.453125q-0.5625 2.171875 -2.0 3.328125q-1.4375 1.140625 -3.53125 1.140625q-2.15625 0 -3.515625 -0.875q-1.34375 -0.890625 -2.0625 -2.546875q-0.703125 -1.671875 -0.703125 -3.59375q0 -2.078125 0.796875 -3.625q0.796875 -1.5625019 2.265625 -2.359377q1.484375 -0.8125 3.25 -0.8125q2.0 0 3.359375 1.015625q1.375 1.0156269 1.90625 2.875002l-1.734375 0.40625q-0.46875 -1.453125 -1.359375 -2.109375q-0.875 -0.6718769 -2.203125 -0.6718769q-1.546875 0 -2.578125 0.7343769q-1.03125 0.734375 -1.453125 1.984375q-0.421875 1.234375 -0.421875 2.5625q0 1.703125 0.5 2.96875q0.5 1.265625 1.546875 1.90625q1.046875 0.625 2.265625 0.625q1.484375 0 2.515625 -0.859375q1.03125 -0.859375 1.390625 -2.546875zm3.9416962 4.6875l0 -13.359377l4.609375 0q1.546875 0 2.375 0.203125q1.140625 0.25 1.953125 0.953125q1.0625 0.8906269 1.578125 2.281252q0.53125 1.390625 0.53125 3.171875q0 1.515625 -0.359375 2.703125q-0.359375 1.171875 -0.921875 1.9375q-0.546875 0.765625 -1.203125 1.21875q-0.65625 0.4375 -1.59375 0.671875q-0.9375 0.21875 -2.140625 0.21875l-4.828125 0zm1.765625 -1.578125l2.859375 0q1.3125 0 2.0625 -0.234375q0.75 -0.25 1.203125 -0.703125q0.625 -0.625 0.96875 -1.6875q0.359375 -1.0625 0.359375 -2.578125q0 -2.09375 -0.6875 -3.21875q-0.6875 -1.125 -1.671875 -1.5q-0.703125 -0.28125 -2.28125 -0.28125l-2.8125 0l0 10.203125zm11.691696 1.578125l0 -13.359377l1.8125 0l7.015625 10.484377l0 -10.484377l1.6875 0l0 13.359377l-1.8125 0l-7.015625 -10.5l0 10.5l-1.6875 0z" fill-rule="nonzero"/><path fill="#010000" fill-opacity="0.0" d="m250.31703 27.065111l0 0l0 21.452864l0 0l0 -21.452864z" fill-rule="nonzero"/><path fill="#000099" d="m209.8982 45.167454l40.41884 0l0 1.6800003l-40.41884 0l0 -1.6800003z" fill-rule="nonzero"/><a xlink:href="https://www.google.com/url?q=https://github.com/vburlai/chat-design-demo/tree/master/cdn&amp;sa=D&amp;ust=1593870782434000&amp;usg=AFQjCNFBoRtNgoqheABSaae-_ftSgR6x6g" target="_blank" rel="noreferrer"><path fill="transparent" fill-opacity="0" d="m209.8982 26.03412l40.41884 0l0 22.4l-40.41884 0l0 -22.4z" fill-rule="nonzero"/></a><path fill="#cfe2f3" d="m13.070867 20.803307l0 0c0 -4.311098 3.494834 -7.805931 7.80593 -7.805931l85.679474 0c2.070259 0 4.0557327 0.8224077 5.519623 2.2863035c1.4638977 1.4638968 2.2863083 3.4493647 2.2863083 5.5196276l0 31.222782c0 4.3111 -3.494835 7.805931 -7.805931 7.805931l-85.679474 0c-4.311096 0 -7.80593 -3.494831 -7.80593 -7.805931z" fill-rule="evenodd"/><path stroke="#000000" stroke-width="1.0" stroke-linejoin="round" stroke-linecap="butt" d="m13.070867 20.803307l0 0c0 -4.311098 3.494834 -7.805931 7.80593 -7.805931l85.679474 0c2.070259 0 4.0557327 0.8224077 5.519623 2.2863035c1.4638977 1.4638968 2.2863083 3.4493647 2.2863083 5.5196276l0 31.222782c0 4.3111 -3.494835 7.805931 -7.805931 7.805931l-85.679474 0c-4.311096 0 -7.80593 -3.494831 -7.80593 -7.805931z" fill-rule="evenodd"/><path fill="#000000" fill-opacity="0.0" d="m32.08836 26.445688l47.69733 0l0 21.452864l-47.69733 0l0 -21.452864z" fill-rule="nonzero"/><path fill="#000099" d="m43.05711 38.647194l1.765625 0.453125q-0.5625 2.171875 -2.0 3.328125q-1.4375 1.140625 -3.53125 1.140625q-2.15625 0 -3.515625 -0.875q-1.34375 -0.890625 -2.0625 -2.546875q-0.703125 -1.671875 -0.703125 -3.59375q0 -2.078125 0.796875 -3.625q0.796875 -1.5624981 2.265625 -2.359373q1.484375 -0.8125 3.25 -0.8125q2.0 0 3.359375 1.015625q1.375 1.015625 1.90625 2.874998l-1.734375 0.40625q-0.46875 -1.453125 -1.359375 -2.109373q-0.875 -0.671875 -2.203125 -0.671875q-1.546875 0 -2.578125 0.7343731q-1.03125 0.734375 -1.453125 1.984375q-0.421875 1.234375 -0.421875 2.5625q0 1.703125 0.5 2.96875q0.5 1.265625 1.546875 1.90625q1.046875 0.625 2.265625 0.625q1.484375 0 2.515625 -0.859375q1.03125 -0.859375 1.390625 -2.546875zm3.6916962 4.6875l0 -13.359373l1.640625 0l0 13.359373l-1.640625 0zm4.191696 -11.468748l0 -1.890625l1.640625 0l0 1.890625l-1.640625 0zm0 11.468748l0 -9.671875l1.640625 0l0 9.671875l-1.640625 0zm10.769821 -3.109375l1.6875 0.203125q-0.40625 1.484375 -1.484375 2.3125q-1.078125 0.8125 -2.765625 0.8125q-2.125 0 -3.375 -1.296875q-1.234375 -1.3125 -1.234375 -3.671875q0 -2.453125 1.25 -3.796875q1.265625 -1.34375 3.265625 -1.34375q1.9375 0 3.15625 1.328125q1.234375 1.3125 1.234375 3.703125q0 0.15625 0 0.4375l-7.21875 0q0.09375 1.59375 0.90625 2.453125q0.8125 0.84375 2.015625 0.84375q0.90625 0 1.546875 -0.46875q0.640625 -0.484375 1.015625 -1.515625zm-5.390625 -2.65625l5.40625 0q-0.109375 -1.21875 -0.625 -1.828125q-0.78125 -0.953125 -2.03125 -0.953125q-1.125 0 -1.90625 0.765625q-0.765625 0.75 -0.84375 2.015625zm9.141346 5.765625l0 -9.671875l1.46875 0l0 1.375q1.0625 -1.59375 3.078125 -1.59375q0.875 0 1.609375 0.3125q0.734375 0.3125 1.09375 0.828125q0.375 0.5 0.515625 1.203125q0.09375 0.453125 0.09375 1.59375l0 5.953125l-1.640625 0l0 -5.890625q0 -1.0 -0.203125 -1.484375q-0.1875 -0.5 -0.671875 -0.796875q-0.484375 -0.296875 -1.140625 -0.296875q-1.046875 0 -1.8125 0.671875q-0.75 0.65625 -0.75 2.515625l0 5.28125l-1.640625 0zm13.953842 -1.46875l0.234375 1.453125q-0.6875 0.140625 -1.234375 0.140625q-0.890625 0 -1.390625 -0.28125q-0.484375 -0.28125 -0.6875 -0.734375q-0.203125 -0.46875 -0.203125 -1.9375l0 -5.578125l-1.203125 0l0 -1.265625l1.203125 0l0 -2.390623l1.625 -0.984375l0 3.374998l1.65625 0l0 1.265625l-1.65625 0l0 5.671875q0 0.6875 0.078125 0.890625q0.09375 0.203125 0.28125 0.328125q0.203125 0.109375 0.578125 0.109375q0.265625 0 0.71875 -0.0625z" fill-rule="nonzero"/><path fill="#000000" d="m91.92212 43.334694l-1.640625 0l0 -10.453125q-0.59375 0.5625 -1.5625 1.140625q-0.953125 0.5625 -1.71875 0.84375l0 -1.59375q1.375 -0.640625 2.40625 -1.5624981q1.03125 -0.921875 1.453125 -1.78125l1.0625 0l0 13.406248z" fill-rule="nonzero"/><path fill="#000099" d="m32.08836 44.548027l47.69733 0l0 1.6800003l-47.69733 0l0 -1.6800003z" fill-rule="nonzero"/><a xlink:href="https://www.google.com/url?q=https://github.com/vburlai/chat-design-demo/tree/master/cdn/client&amp;sa=D&amp;ust=1593870782439000&amp;usg=AFQjCNEviOXN7h7pBtOuKKjMLVx4mU4c0Q" target="_blank" rel="noreferrer"><path fill="transparent" fill-opacity="0" d="m32.08836 25.414698l47.69733 0l0 22.399996l-47.69733 0l0 -22.399996z" fill-rule="nonzero"/></a><path fill="#cfe2f3" d="m13.070867 84.80331l0 0c0 -4.311096 3.494834 -7.805931 7.80593 -7.805931l85.679474 0c2.070259 0 4.0557327 0.8224106 5.519623 2.2863007c1.4638977 1.4638977 2.2863083 3.4493713 2.2863083 5.5196304l0 31.222786c0 4.311096 -3.494835 7.805931 -7.805931 7.805931l-85.679474 0c-4.311096 0 -7.80593 -3.494835 -7.80593 -7.805931z" fill-rule="evenodd"/><path stroke="#000000" stroke-width="1.0" stroke-linejoin="round" stroke-linecap="butt" d="m13.070867 84.80331l0 0c0 -4.311096 3.494834 -7.805931 7.80593 -7.805931l85.679474 0c2.070259 0 4.0557327 0.8224106 5.519623 2.2863007c1.4638977 1.4638977 2.2863083 3.4493713 2.2863083 5.5196304l0 31.222786c0 4.311096 -3.494835 7.805931 -7.805931 7.805931l-85.679474 0c-4.311096 0 -7.80593 -3.494835 -7.80593 -7.805931z" fill-rule="evenodd"/><path fill="#000000" fill-opacity="0.0" d="m32.08836 90.44569l47.69733 0l0 21.452866l-47.69733 0l0 -21.452866z" fill-rule="nonzero"/><path fill="#000099" d="m43.05711 102.647194l1.765625 0.453125q-0.5625 2.171875 -2.0 3.328125q-1.4375 1.140625 -3.53125 1.140625q-2.15625 0 -3.515625 -0.875q-1.34375 -0.890625 -2.0625 -2.546875q-0.703125 -1.671875 -0.703125 -3.59375q0 -2.078125 0.796875 -3.625q0.796875 -1.5625 2.265625 -2.359375q1.484375 -0.8125 3.25 -0.8125q2.0 0 3.359375 1.015625q1.375 1.015625 1.90625 2.875l-1.734375 0.40625q-0.46875 -1.453125 -1.359375 -2.109375q-0.875 -0.671875 -2.203125 -0.671875q-1.546875 0 -2.578125 0.734375q-1.03125 0.734375 -1.453125 1.984375q-0.421875 1.234375 -0.421875 2.5625q0 1.703125 0.5 2.96875q0.5 1.265625 1.546875 1.90625q1.046875 0.625 2.265625 0.625q1.484375 0 2.515625 -0.859375q1.03125 -0.859375 1.390625 -2.546875zm3.6916962 4.6875l0 -13.359375l1.640625 0l0 13.359375l-1.640625 0zm4.191696 -11.46875l0 -1.890625l1.640625 0l0 1.890625l-1.640625 0zm0 11.46875l0 -9.671875l1.640625 0l0 9.671875l-1.640625 0zm10.769821 -3.109375l1.6875 0.203125q-0.40625 1.484375 -1.484375 2.3125q-1.078125 0.8125 -2.765625 0.8125q-2.125 0 -3.375 -1.296875q-1.234375 -1.3125 -1.234375 -3.671875q0 -2.453125 1.25 -3.796875q1.265625 -1.34375 3.265625 -1.34375q1.9375 0 3.15625 1.328125q1.234375 1.3125 1.234375 3.703125q0 0.15625 0 0.4375l-7.21875 0q0.09375 1.59375 0.90625 2.453125q0.8125 0.84375 2.015625 0.84375q0.90625 0 1.546875 -0.46875q0.640625 -0.484375 1.015625 -1.515625zm-5.390625 -2.65625l5.40625 0q-0.109375 -1.21875 -0.625 -1.828125q-0.78125 -0.953125 -2.03125 -0.953125q-1.125 0 -1.90625 0.765625q-0.765625 0.75 -0.84375 2.015625zm9.141346 5.765625l0 -9.671875l1.46875 0l0 1.375q1.0625 -1.59375 3.078125 -1.59375q0.875 0 1.609375 0.3125q0.734375 0.3125 1.09375 0.828125q0.375 0.5 0.515625 1.203125q0.09375 0.453125 0.09375 1.59375l0 5.953125l-1.640625 0l0 -5.890625q0 -1.0 -0.203125 -1.484375q-0.1875 -0.5 -0.671875 -0.796875q-0.484375 -0.296875 -1.140625 -0.296875q-1.046875 0 -1.8125 0.671875q-0.75 0.65625 -0.75 2.515625l0 5.28125l-1.640625 0zm13.953842 -1.46875l0.234375 1.453125q-0.6875 0.140625 -1.234375 0.140625q-0.890625 0 -1.390625 -0.28125q-0.484375 -0.28125 -0.6875 -0.734375q-0.203125 -0.46875 -0.203125 -1.9375l0 -5.578125l-1.203125 0l0 -1.265625l1.203125 0l0 -2.390625l1.625 -0.984375l0 3.375l1.65625 0l0 1.265625l-1.65625 0l0 5.671875q0 0.6875 0.078125 0.890625q0.09375 0.203125 0.28125 0.328125q0.203125 0.109375 0.578125 0.109375q0.265625 0 0.71875 -0.0625z" fill-rule="nonzero"/><path fill="#000000" d="m94.35962 105.75657l0 1.578125l-8.828125 0q-0.015625 -0.59375 0.1875 -1.140625q0.34375 -0.90625 1.078125 -1.78125q0.75 -0.875 2.15625 -2.015625q2.171875 -1.78125 2.9375 -2.828125q0.765625 -1.046875 0.765625 -1.96875q0 -0.984375 -0.703125 -1.640625q-0.6875 -0.671875 -1.8125 -0.671875q-1.1875 0 -1.90625 0.71875q-0.703125 0.703125 -0.703125 1.953125l-1.6875 -0.171875q0.171875 -1.890625 1.296875 -2.875q1.140625 -0.984375 3.03125 -0.984375q1.921875 0 3.046875 1.0625q1.125 1.0625 1.125 2.640625q0 0.796875 -0.328125 1.578125q-0.328125 0.78125 -1.09375 1.640625q-0.75 0.84375 -2.53125 2.34375q-1.46875 1.234375 -1.890625 1.6875q-0.421875 0.4375 -0.6875 0.875l6.546875 0z" fill-rule="nonzero"/><path fill="#000099" d="m32.08836 108.54803l47.69733 0l0 1.6800003l-47.69733 0l0 -1.6800003z" fill-rule="nonzero"/><a xlink:href="https://www.google.com/url?q=https://github.com/vburlai/chat-design-demo/tree/master/cdn/client&amp;sa=D&amp;ust=1593870782444000&amp;usg=AFQjCNHZsaylI2mBSekc39ApURsir1M4vw" target="_blank" rel="noreferrer"><path fill="transparent" fill-opacity="0" d="m32.08836 89.414696l47.69733 0l0 22.400002l-47.69733 0l0 -22.400002z" fill-rule="nonzero"/></a><path fill="#cfe2f3" d="m13.070867 148.8033l0 0c0 -4.311096 3.494834 -7.8059235 7.80593 -7.8059235l85.679474 0c2.070259 0 4.0557327 0.82240295 5.519623 2.2863007c1.4638977 1.4638977 2.2863083 3.4493713 2.2863083 5.519623l0 31.222794c0 4.311096 -3.494835 7.8059235 -7.805931 7.8059235l-85.679474 0c-4.311096 0 -7.80593 -3.4948273 -7.80593 -7.8059235z" fill-rule="evenodd"/><path stroke="#000000" stroke-width="1.0" stroke-linejoin="round" stroke-linecap="butt" d="m13.070867 148.8033l0 0c0 -4.311096 3.494834 -7.8059235 7.80593 -7.8059235l85.679474 0c2.070259 0 4.0557327 0.82240295 5.519623 2.2863007c1.4638977 1.4638977 2.2863083 3.4493713 2.2863083 5.519623l0 31.222794c0 4.311096 -3.494835 7.8059235 -7.805931 7.8059235l-85.679474 0c-4.311096 0 -7.80593 -3.4948273 -7.80593 -7.8059235z" fill-rule="evenodd"/><path fill="#000000" fill-opacity="0.0" d="m32.08836 154.4457l47.69733 0l0 21.452866l-47.69733 0l0 -21.452866z" fill-rule="nonzero"/><path fill="#000099" d="m43.05711 166.6472l1.765625 0.453125q-0.5625 2.171875 -2.0 3.328125q-1.4375 1.140625 -3.53125 1.140625q-2.15625 0 -3.515625 -0.875q-1.34375 -0.890625 -2.0625 -2.546875q-0.703125 -1.671875 -0.703125 -3.59375q0 -2.078125 0.796875 -3.625q0.796875 -1.5625 2.265625 -2.359375q1.484375 -0.8125 3.25 -0.8125q2.0 0 3.359375 1.015625q1.375 1.015625 1.90625 2.875l-1.734375 0.40625q-0.46875 -1.453125 -1.359375 -2.109375q-0.875 -0.671875 -2.203125 -0.671875q-1.546875 0 -2.578125 0.734375q-1.03125 0.734375 -1.453125 1.984375q-0.421875 1.234375 -0.421875 2.5625q0 1.703125 0.5 2.96875q0.5 1.265625 1.546875 1.90625q1.046875 0.625 2.265625 0.625q1.484375 0 2.515625 -0.859375q1.03125 -0.859375 1.390625 -2.546875zm3.6916962 4.6875l0 -13.359375l1.640625 0l0 13.359375l-1.640625 0zm4.191696 -11.46875l0 -1.890625l1.640625 0l0 1.890625l-1.640625 0zm0 11.46875l0 -9.671875l1.640625 0l0 9.671875l-1.640625 0zm10.769821 -3.109375l1.6875 0.203125q-0.40625 1.484375 -1.484375 2.3125q-1.078125 0.8125 -2.765625 0.8125q-2.125 0 -3.375 -1.296875q-1.234375 -1.3125 -1.234375 -3.671875q0 -2.453125 1.25 -3.796875q1.265625 -1.34375 3.265625 -1.34375q1.9375 0 3.15625 1.328125q1.234375 1.3125 1.234375 3.703125q0 0.15625 0 0.4375l-7.21875 0q0.09375 1.59375 0.90625 2.453125q0.8125 0.84375 2.015625 0.84375q0.90625 0 1.546875 -0.46875q0.640625 -0.484375 1.015625 -1.515625zm-5.390625 -2.65625l5.40625 0q-0.109375 -1.21875 -0.625 -1.828125q-0.78125 -0.953125 -2.03125 -0.953125q-1.125 0 -1.90625 0.765625q-0.765625 0.75 -0.84375 2.015625zm9.141346 5.765625l0 -9.671875l1.46875 0l0 1.375q1.0625 -1.59375 3.078125 -1.59375q0.875 0 1.609375 0.3125q0.734375 0.3125 1.09375 0.828125q0.375 0.5 0.515625 1.203125q0.09375 0.453125 0.09375 1.59375l0 5.953125l-1.640625 0l0 -5.890625q0 -1.0 -0.203125 -1.484375q-0.1875 -0.5 -0.671875 -0.796875q-0.484375 -0.296875 -1.140625 -0.296875q-1.046875 0 -1.8125 0.671875q-0.75 0.65625 -0.75 2.515625l0 5.28125l-1.640625 0zm13.953842 -1.46875l0.234375 1.453125q-0.6875 0.140625 -1.234375 0.140625q-0.890625 0 -1.390625 -0.28125q-0.484375 -0.28125 -0.6875 -0.734375q-0.203125 -0.46875 -0.203125 -1.9375l0 -5.578125l-1.203125 0l0 -1.265625l1.203125 0l0 -2.390625l1.625 -0.984375l0 3.375l1.65625 0l0 1.265625l-1.65625 0l0 5.671875q0 0.6875 0.078125 0.890625q0.09375 0.203125 0.28125 0.328125q0.203125 0.109375 0.578125 0.109375q0.265625 0 0.71875 -0.0625z" fill-rule="nonzero"/><path fill="#000000" d="m85.750244 167.80345l1.640625 -0.21875q0.28125 1.40625 0.953125 2.015625q0.6875 0.609375 1.65625 0.609375q1.15625 0 1.953125 -0.796875q0.796875 -0.796875 0.796875 -1.984375q0 -1.125 -0.734375 -1.859375q-0.734375 -0.734375 -1.875 -0.734375q-0.46875 0 -1.15625 0.171875l0.1875 -1.4375q0.15625 0.015625 0.265625 0.015625q1.046875 0 1.875 -0.546875q0.84375 -0.546875 0.84375 -1.671875q0 -0.90625 -0.609375 -1.5q-0.609375 -0.59375 -1.578125 -0.59375q-0.953125 0 -1.59375 0.609375q-0.640625 0.59375 -0.8125 1.796875l-1.640625 -0.296875q0.296875 -1.640625 1.359375 -2.546875q1.0625 -0.90625 2.65625 -0.90625q1.09375 0 2.0 0.46875q0.921875 0.46875 1.40625 1.28125q0.5 0.8125 0.5 1.71875q0 0.859375 -0.46875 1.578125q-0.46875 0.703125 -1.375 1.125q1.1875 0.28125 1.84375 1.140625q0.65625 0.859375 0.65625 2.15625q0 1.734375 -1.28125 2.953125q-1.265625 1.21875 -3.21875 1.21875q-1.765625 0 -2.921875 -1.046875q-1.15625 -1.046875 -1.328125 -2.71875z" fill-rule="nonzero"/><path fill="#000099" d="m32.08836 172.54803l47.69733 0l0 1.6799927l-47.69733 0l0 -1.6799927z" fill-rule="nonzero"/><a xlink:href="https://www.google.com/url?q=https://github.com/vburlai/chat-design-demo/tree/master/cdn/client&amp;sa=D&amp;ust=1593870782448000&amp;usg=AFQjCNFN5zlvKfLLsQ54O_LeOijWTzQ5tA" target="_blank" rel="noreferrer"><path fill="transparent" fill-opacity="0" d="m32.08836 153.4147l47.69733 0l0 22.399994l-47.69733 0l0 -22.399994z" fill-rule="nonzero"/></a><path fill="#cfe2f3" d="m13.070867 212.8033l0 0c0 -4.311096 3.494834 -7.8059235 7.80593 -7.8059235l85.679474 0c2.070259 0 4.0557327 0.82240295 5.519623 2.2863007c1.4638977 1.4638977 2.2863083 3.4493713 2.2863083 5.519623l0 31.222794c0 4.311096 -3.494835 7.8059235 -7.805931 7.8059235l-85.679474 0c-4.311096 0 -7.80593 -3.4948273 -7.80593 -7.8059235z" fill-rule="evenodd"/><path stroke="#000000" stroke-width="1.0" stroke-linejoin="round" stroke-linecap="butt" d="m13.070867 212.8033l0 0c0 -4.311096 3.494834 -7.8059235 7.80593 -7.8059235l85.679474 0c2.070259 0 4.0557327 0.82240295 5.519623 2.2863007c1.4638977 1.4638977 2.2863083 3.4493713 2.2863083 5.519623l0 31.222794c0 4.311096 -3.494835 7.8059235 -7.805931 7.8059235l-85.679474 0c-4.311096 0 -7.80593 -3.4948273 -7.80593 -7.8059235z" fill-rule="evenodd"/><path fill="#000000" fill-opacity="0.0" d="m32.08836 218.4457l47.69733 0l0 21.452866l-47.69733 0l0 -21.452866z" fill-rule="nonzero"/><path fill="#000099" d="m43.05711 230.6472l1.765625 0.453125q-0.5625 2.171875 -2.0 3.328125q-1.4375 1.140625 -3.53125 1.140625q-2.15625 0 -3.515625 -0.875q-1.34375 -0.890625 -2.0625 -2.546875q-0.703125 -1.671875 -0.703125 -3.59375q0 -2.078125 0.796875 -3.625q0.796875 -1.5625 2.265625 -2.359375q1.484375 -0.8125 3.25 -0.8125q2.0 0 3.359375 1.015625q1.375 1.015625 1.90625 2.875l-1.734375 0.40625q-0.46875 -1.453125 -1.359375 -2.109375q-0.875 -0.671875 -2.203125 -0.671875q-1.546875 0 -2.578125 0.734375q-1.03125 0.734375 -1.453125 1.984375q-0.421875 1.234375 -0.421875 2.5625q0 1.703125 0.5 2.96875q0.5 1.265625 1.546875 1.90625q1.046875 0.625 2.265625 0.625q1.484375 0 2.515625 -0.859375q1.03125 -0.859375 1.390625 -2.546875zm3.6916962 4.6875l0 -13.359375l1.640625 0l0 13.359375l-1.640625 0zm4.191696 -11.46875l0 -1.890625l1.640625 0l0 1.890625l-1.640625 0zm0 11.46875l0 -9.671875l1.640625 0l0 9.671875l-1.640625 0zm10.769821 -3.109375l1.6875 0.203125q-0.40625 1.484375 -1.484375 2.3125q-1.078125 0.8125 -2.765625 0.8125q-2.125 0 -3.375 -1.296875q-1.234375 -1.3125 -1.234375 -3.671875q0 -2.453125 1.25 -3.796875q1.265625 -1.34375 3.265625 -1.34375q1.9375 0 3.15625 1.328125q1.234375 1.3125 1.234375 3.703125q0 0.15625 0 0.4375l-7.21875 0q0.09375 1.59375 0.90625 2.453125q0.8125 0.84375 2.015625 0.84375q0.90625 0 1.546875 -0.46875q0.640625 -0.484375 1.015625 -1.515625zm-5.390625 -2.65625l5.40625 0q-0.109375 -1.21875 -0.625 -1.828125q-0.78125 -0.953125 -2.03125 -0.953125q-1.125 0 -1.90625 0.765625q-0.765625 0.75 -0.84375 2.015625zm9.141346 5.765625l0 -9.671875l1.46875 0l0 1.375q1.0625 -1.59375 3.078125 -1.59375q0.875 0 1.609375 0.3125q0.734375 0.3125 1.09375 0.828125q0.375 0.5 0.515625 1.203125q0.09375 0.453125 0.09375 1.59375l0 5.953125l-1.640625 0l0 -5.890625q0 -1.0 -0.203125 -1.484375q-0.1875 -0.5 -0.671875 -0.796875q-0.484375 -0.296875 -1.140625 -0.296875q-1.046875 0 -1.8125 0.671875q-0.75 0.65625 -0.75 2.515625l0 5.28125l-1.640625 0zm13.953842 -1.46875l0.234375 1.453125q-0.6875 0.140625 -1.234375 0.140625q-0.890625 0 -1.390625 -0.28125q-0.484375 -0.28125 -0.6875 -0.734375q-0.203125 -0.46875 -0.203125 -1.9375l0 -5.578125l-1.203125 0l0 -1.265625l1.203125 0l0 -2.390625l1.625 -0.984375l0 3.375l1.65625 0l0 1.265625l-1.65625 0l0 5.671875q0 0.6875 0.078125 0.890625q0.09375 0.203125 0.28125 0.328125q0.203125 0.109375 0.578125 0.109375q0.265625 0 0.71875 -0.0625z" fill-rule="nonzero"/><path fill="#000000" d="m91.000244 235.3347l0 -3.203125l-5.796875 0l0 -1.5l6.09375 -8.65625l1.34375 0l0 8.65625l1.796875 0l0 1.5l-1.796875 0l0 3.203125l-1.640625 0zm0 -4.703125l0 -6.015625l-4.1875 6.015625l4.1875 0z" fill-rule="nonzero"/><path fill="#000099" d="m32.08836 236.54803l47.69733 0l0 1.6799927l-47.69733 0l0 -1.6799927z" fill-rule="nonzero"/><a xlink:href="https://www.google.com/url?q=https://github.com/vburlai/chat-design-demo/tree/master/cdn/client&amp;sa=D&amp;ust=1593870782452000&amp;usg=AFQjCNFMCOzi7o9NTK0tDl9YNDAc9XCapA" target="_blank" rel="noreferrer"><path fill="transparent" fill-opacity="0" d="m32.08836 217.4147l47.69733 0l0 22.399994l-47.69733 0l0 -22.399994z" fill-rule="nonzero"/></a><path fill="#cfe2f3" d="m13.070867 276.8033l0 0c0 -4.311096 3.494834 -7.8059387 7.80593 -7.8059387l85.679474 0c2.070259 0 4.0557327 0.8224182 5.519623 2.286316c1.4638977 1.4638977 2.2863083 3.4493408 2.2863083 5.519623l0 31.222778c0 4.311096 -3.494835 7.8059387 -7.805931 7.8059387l-85.679474 0c-4.311096 0 -7.80593 -3.4948425 -7.80593 -7.8059387z" fill-rule="evenodd"/><path stroke="#000000" stroke-width="1.0" stroke-linejoin="round" stroke-linecap="butt" d="m13.070867 276.8033l0 0c0 -4.311096 3.494834 -7.8059387 7.80593 -7.8059387l85.679474 0c2.070259 0 4.0557327 0.8224182 5.519623 2.286316c1.4638977 1.4638977 2.2863083 3.4493408 2.2863083 5.519623l0 31.222778c0 4.311096 -3.494835 7.8059387 -7.805931 7.8059387l-85.679474 0c-4.311096 0 -7.80593 -3.4948425 -7.80593 -7.8059387z" fill-rule="evenodd"/><path fill="#000000" fill-opacity="0.0" d="m32.08836 282.44568l47.69733 0l0 21.45288l-47.69733 0l0 -21.45288z" fill-rule="nonzero"/><path fill="#000099" d="m43.05711 294.6472l1.765625 0.453125q-0.5625 2.171875 -2.0 3.328125q-1.4375 1.140625 -3.53125 1.140625q-2.15625 0 -3.515625 -0.875q-1.34375 -0.890625 -2.0625 -2.546875q-0.703125 -1.671875 -0.703125 -3.59375q0 -2.078125 0.796875 -3.625q0.796875 -1.5625 2.265625 -2.359375q1.484375 -0.8125 3.25 -0.8125q2.0 0 3.359375 1.015625q1.375 1.015625 1.90625 2.875l-1.734375 0.40625q-0.46875 -1.453125 -1.359375 -2.109375q-0.875 -0.671875 -2.203125 -0.671875q-1.546875 0 -2.578125 0.734375q-1.03125 0.734375 -1.453125 1.984375q-0.421875 1.234375 -0.421875 2.5625q0 1.703125 0.5 2.96875q0.5 1.265625 1.546875 1.90625q1.046875 0.625 2.265625 0.625q1.484375 0 2.515625 -0.859375q1.03125 -0.859375 1.390625 -2.546875zm3.6916962 4.6875l0 -13.359375l1.640625 0l0 13.359375l-1.640625 0zm4.191696 -11.46875l0 -1.890625l1.640625 0l0 1.890625l-1.640625 0zm0 11.46875l0 -9.671875l1.640625 0l0 9.671875l-1.640625 0zm10.769821 -3.109375l1.6875 0.203125q-0.40625 1.484375 -1.484375 2.3125q-1.078125 0.8125 -2.765625 0.8125q-2.125 0 -3.375 -1.296875q-1.234375 -1.3125 -1.234375 -3.671875q0 -2.453125 1.25 -3.796875q1.265625 -1.34375 3.265625 -1.34375q1.9375 0 3.15625 1.328125q1.234375 1.3125 1.234375 3.703125q0 0.15625 0 0.4375l-7.21875 0q0.09375 1.59375 0.90625 2.453125q0.8125 0.84375 2.015625 0.84375q0.90625 0 1.546875 -0.46875q0.640625 -0.484375 1.015625 -1.515625zm-5.390625 -2.65625l5.40625 0q-0.109375 -1.21875 -0.625 -1.828125q-0.78125 -0.953125 -2.03125 -0.953125q-1.125 0 -1.90625 0.765625q-0.765625 0.75 -0.84375 2.015625zm9.141346 5.765625l0 -9.671875l1.46875 0l0 1.375q1.0625 -1.59375 3.078125 -1.59375q0.875 0 1.609375 0.3125q0.734375 0.3125 1.09375 0.828125q0.375 0.5 0.515625 1.203125q0.09375 0.453125 0.09375 1.59375l0 5.953125l-1.640625 0l0 -5.890625q0 -1.0 -0.203125 -1.484375q-0.1875 -0.5 -0.671875 -0.796875q-0.484375 -0.296875 -1.140625 -0.296875q-1.046875 0 -1.8125 0.671875q-0.75 0.65625 -0.75 2.515625l0 5.28125l-1.640625 0zm13.953842 -1.46875l0.234375 1.453125q-0.6875 0.140625 -1.234375 0.140625q-0.890625 0 -1.390625 -0.28125q-0.484375 -0.28125 -0.6875 -0.734375q-0.203125 -0.46875 -0.203125 -1.9375l0 -5.578125l-1.203125 0l0 -1.265625l1.203125 0l0 -2.390625l1.625 -0.984375l0 3.375l1.65625 0l0 1.265625l-1.65625 0l0 5.671875q0 0.6875 0.078125 0.890625q0.09375 0.203125 0.28125 0.328125q0.203125 0.109375 0.578125 0.109375q0.265625 0 0.71875 -0.0625z" fill-rule="nonzero"/><path fill="#000000" d="m85.750244 295.8347l1.71875 -0.140625q0.1875 1.25 0.875 1.890625q0.703125 0.625 1.6875 0.625q1.1875 0 2.0 -0.890625q0.828125 -0.890625 0.828125 -2.359375q0 -1.40625 -0.796875 -2.21875q-0.78125 -0.8125 -2.0625 -0.8125q-0.78125 0 -1.421875 0.359375q-0.640625 0.359375 -1.0 0.9375l-1.546875 -0.203125l1.296875 -6.859375l6.640625 0l0 1.5625l-5.328125 0l-0.71875 3.59375q1.203125 -0.84375 2.515625 -0.84375q1.75 0 2.953125 1.21875q1.203125 1.203125 1.203125 3.109375q0 1.8125 -1.046875 3.140625q-1.296875 1.625 -3.515625 1.625q-1.8125 0 -2.96875 -1.015625q-1.15625 -1.03125 -1.3125 -2.71875z" fill-rule="nonzero"/><path fill="#000099" d="m32.08836 300.54803l47.69733 0l0 1.6799927l-47.69733 0l0 -1.6799927z" fill-rule="nonzero"/><a xlink:href="https://www.google.com/url?q=https://github.com/vburlai/chat-design-demo/tree/master/cdn/client&amp;sa=D&amp;ust=1593870782456000&amp;usg=AFQjCNGJo4mWMxFoXliLg_IE30pMMHqKLw" target="_blank" rel="noreferrer"><path fill="transparent" fill-opacity="0" d="m32.08836 281.4147l47.69733 0l0 22.399994l-47.69733 0l0 -22.399994z" fill-rule="nonzero"/></a><path fill="#cfe2f3" d="m13.070867 340.8033l0 0c0 -4.311096 3.494834 -7.8059387 7.80593 -7.8059387l85.679474 0c2.070259 0 4.0557327 0.8224182 5.519623 2.286316c1.4638977 1.4638977 2.2863083 3.4493408 2.2863083 5.519623l0 31.222778c0 4.311096 -3.494835 7.8059387 -7.805931 7.8059387l-85.679474 0c-4.311096 0 -7.80593 -3.4948425 -7.80593 -7.8059387z" fill-rule="evenodd"/><path stroke="#000000" stroke-width="1.0" stroke-linejoin="round" stroke-linecap="butt" d="m13.070867 340.8033l0 0c0 -4.311096 3.494834 -7.8059387 7.80593 -7.8059387l85.679474 0c2.070259 0 4.0557327 0.8224182 5.519623 2.286316c1.4638977 1.4638977 2.2863083 3.4493408 2.2863083 5.519623l0 31.222778c0 4.311096 -3.494835 7.8059387 -7.805931 7.8059387l-85.679474 0c-4.311096 0 -7.80593 -3.4948425 -7.80593 -7.8059387z" fill-rule="evenodd"/><path fill="#000000" fill-opacity="0.0" d="m32.08836 346.44568l47.69733 0l0 21.45288l-47.69733 0l0 -21.45288z" fill-rule="nonzero"/><path fill="#000099" d="m43.05711 358.6472l1.765625 0.453125q-0.5625 2.171875 -2.0 3.328125q-1.4375 1.140625 -3.53125 1.140625q-2.15625 0 -3.515625 -0.875q-1.34375 -0.890625 -2.0625 -2.546875q-0.703125 -1.671875 -0.703125 -3.59375q0 -2.078125 0.796875 -3.625q0.796875 -1.5625 2.265625 -2.359375q1.484375 -0.8125 3.25 -0.8125q2.0 0 3.359375 1.015625q1.375 1.015625 1.90625 2.875l-1.734375 0.40625q-0.46875 -1.453125 -1.359375 -2.109375q-0.875 -0.671875 -2.203125 -0.671875q-1.546875 0 -2.578125 0.734375q-1.03125 0.734375 -1.453125 1.984375q-0.421875 1.234375 -0.421875 2.5625q0 1.703125 0.5 2.96875q0.5 1.265625 1.546875 1.90625q1.046875 0.625 2.265625 0.625q1.484375 0 2.515625 -0.859375q1.03125 -0.859375 1.390625 -2.546875zm3.6916962 4.6875l0 -13.359375l1.640625 0l0 13.359375l-1.640625 0zm4.191696 -11.46875l0 -1.890625l1.640625 0l0 1.890625l-1.640625 0zm0 11.46875l0 -9.671875l1.640625 0l0 9.671875l-1.640625 0zm10.769821 -3.109375l1.6875 0.203125q-0.40625 1.484375 -1.484375 2.3125q-1.078125 0.8125 -2.765625 0.8125q-2.125 0 -3.375 -1.296875q-1.234375 -1.3125 -1.234375 -3.671875q0 -2.453125 1.25 -3.796875q1.265625 -1.34375 3.265625 -1.34375q1.9375 0 3.15625 1.328125q1.234375 1.3125 1.234375 3.703125q0 0.15625 0 0.4375l-7.21875 0q0.09375 1.59375 0.90625 2.453125q0.8125 0.84375 2.015625 0.84375q0.90625 0 1.546875 -0.46875q0.640625 -0.484375 1.015625 -1.515625zm-5.390625 -2.65625l5.40625 0q-0.109375 -1.21875 -0.625 -1.828125q-0.78125 -0.953125 -2.03125 -0.953125q-1.125 0 -1.90625 0.765625q-0.765625 0.75 -0.84375 2.015625zm9.141346 5.765625l0 -9.671875l1.46875 0l0 1.375q1.0625 -1.59375 3.078125 -1.59375q0.875 0 1.609375 0.3125q0.734375 0.3125 1.09375 0.828125q0.375 0.5 0.515625 1.203125q0.09375 0.453125 0.09375 1.59375l0 5.953125l-1.640625 0l0 -5.890625q0 -1.0 -0.203125 -1.484375q-0.1875 -0.5 -0.671875 -0.796875q-0.484375 -0.296875 -1.140625 -0.296875q-1.046875 0 -1.8125 0.671875q-0.75 0.65625 -0.75 2.515625l0 5.28125l-1.640625 0zm13.953842 -1.46875l0.234375 1.453125q-0.6875 0.140625 -1.234375 0.140625q-0.890625 0 -1.390625 -0.28125q-0.484375 -0.28125 -0.6875 -0.734375q-0.203125 -0.46875 -0.203125 -1.9375l0 -5.578125l-1.203125 0l0 -1.265625l1.203125 0l0 -2.390625l1.625 -0.984375l0 3.375l1.65625 0l0 1.265625l-1.65625 0l0 5.671875q0 0.6875 0.078125 0.890625q0.09375 0.203125 0.28125 0.328125q0.203125 0.109375 0.578125 0.109375q0.265625 0 0.71875 -0.0625z" fill-rule="nonzero"/><path fill="#000000" d="m94.250244 353.25656l-1.625 0.125q-0.21875 -0.96875 -0.625 -1.40625q-0.65625 -0.703125 -1.640625 -0.703125q-0.78125 0 -1.375 0.4375q-0.765625 0.5625 -1.21875 1.65625q-0.453125 1.078125 -0.46875 3.078125q0.59375 -0.890625 1.453125 -1.328125q0.859375 -0.4375 1.796875 -0.4375q1.640625 0 2.78125 1.203125q1.15625 1.203125 1.15625 3.109375q0 1.265625 -0.546875 2.34375q-0.53125 1.078125 -1.484375 1.65625q-0.9375 0.578125 -2.140625 0.578125q-2.0625 0 -3.359375 -1.5q-1.28125 -1.515625 -1.28125 -4.984375q0 -3.875 1.421875 -5.625q1.25 -1.53125 3.375 -1.53125q1.5625 0 2.5625 0.890625q1.015625 0.875 1.21875 2.4375zm-6.6875 5.75q0 0.84375 0.359375 1.625q0.359375 0.765625 1.0 1.171875q0.640625 0.40625 1.359375 0.40625q1.03125 0 1.78125 -0.828125q0.75 -0.84375 0.75 -2.28125q0 -1.390625 -0.734375 -2.1875q-0.734375 -0.796875 -1.859375 -0.796875q-1.109375 0 -1.890625 0.796875q-0.765625 0.796875 -0.765625 2.09375z" fill-rule="nonzero"/><path fill="#000099" d="m32.08836 364.54803l47.69733 0l0 1.6799927l-47.69733 0l0 -1.6799927z" fill-rule="nonzero"/><a xlink:href="https://www.google.com/url?q=https://github.com/vburlai/chat-design-demo/tree/master/cdn/client&amp;sa=D&amp;ust=1593870782461000&amp;usg=AFQjCNGk3yO7rxljETAMS1-Z5H3mTs_7DQ" target="_blank" rel="noreferrer"><path fill="transparent" fill-opacity="0" d="m32.08836 345.4147l47.69733 0l0 22.399994l-47.69733 0l0 -22.399994z" fill-rule="nonzero"/></a><path fill="#000000" fill-opacity="0.0" d="m179.46194 37.034122l-65.10236 -0.6299248" fill-rule="evenodd"/><path stroke="#000000" stroke-width="1.0" stroke-linejoin="round" stroke-linecap="butt" d="m179.46194 37.034122l-59.10264 -0.5718689" fill-rule="evenodd"/><path fill="#000000" stroke="#000000" stroke-width="1.0" stroke-linecap="butt" d="m120.37528 34.810596l-4.553871 1.6077461l4.521904 1.6955643z" fill-rule="evenodd"/><path fill="#000000" fill-opacity="0.0" d="m179.46194 37.034122l-65.10236 63.370075" fill-rule="evenodd"/><path stroke="#000000" stroke-width="1.0" stroke-linejoin="round" stroke-linecap="butt" d="m179.46194 37.034122l-60.802902 59.185024" fill-rule="evenodd"/><path fill="#000000" stroke="#000000" stroke-width="1.0" stroke-linecap="butt" d="m117.506935 95.03555l-2.0997925 4.3489532l4.4039917 -1.9817657z" fill-rule="evenodd"/><path fill="#000000" fill-opacity="0.0" d="m179.46194 37.034122l-65.10236 127.37009" fill-rule="evenodd"/><path stroke="#000000" stroke-width="1.0" stroke-linejoin="round" stroke-linecap="butt" d="m179.46194 37.034122l-62.371628 122.02751" fill-rule="evenodd"/><path fill="#000000" stroke="#000000" stroke-width="1.0" stroke-linecap="butt" d="m115.61957 158.30989l-0.59464264 4.7925873l3.5361404 -3.2891083z" fill-rule="evenodd"/><path fill="#000000" fill-opacity="0.0" d="m179.46194 37.034122l-65.10236 191.37009" fill-rule="evenodd"/><path stroke="#000000" stroke-width="1.0" stroke-linejoin="round" stroke-linecap="butt" d="m179.46194 37.034122l-63.169983 185.68977" fill-rule="evenodd"/><path fill="#000000" stroke="#000000" stroke-width="1.0" stroke-linecap="butt" d="m114.72824 222.19193l0.10216522 4.8282623l3.0252838 -3.764328z" fill-rule="evenodd"/><path fill="#000000" fill-opacity="0.0" d="m179.46194 37.034122l-65.10236 255.37009" fill-rule="evenodd"/><path stroke="#000000" stroke-width="1.0" stroke-linejoin="round" stroke-linecap="butt" d="m179.46194 37.034122l-63.62017 249.55603" fill-rule="evenodd"/><path fill="#000000" stroke="#000000" stroke-width="1.0" stroke-linecap="butt" d="m114.241234 286.18213l0.47948456 4.805481l2.7215958 -3.9894104z" fill-rule="evenodd"/><path fill="#000000" fill-opacity="0.0" d="m179.46194 37.034122l-65.10236 319.3701" fill-rule="evenodd"/><path stroke="#000000" stroke-width="1.0" stroke-linejoin="round" stroke-linecap="butt" d="m179.46194 37.034122l-63.90394 313.49097" fill-rule="evenodd"/><path fill="#000000" stroke="#000000" stroke-width="1.0" stroke-linecap="butt" d="m113.93956 350.1952l0.7120209 4.7765503l2.5248795 -4.1167297z" fill-rule="evenodd"/><path fill="#cfe2f3" d="m435.09973 19.606474l0 0c0 -4.8126564 3.9014282 -8.714086 8.714081 -8.714086l83.86319 0c2.3110962 0 4.527588 0.9180889 6.161804 2.5522966c1.6341553 1.6342077 2.552246 3.8506699 2.552246 6.161789l0 34.855293c0 4.8126564 -3.9014282 8.714085 -8.71405 8.714085l-83.86319 0c-4.8126526 0 -8.714081 -3.9014282 -8.714081 -8.714085z" fill-rule="evenodd"/><path stroke="#000000" stroke-width="1.0" stroke-linejoin="round" stroke-linecap="butt" d="m435.09973 19.606474l0 0c0 -4.8126564 3.9014282 -8.714086 8.714081 -8.714086l83.86319 0c2.3110962 0 4.527588 0.9180889 6.161804 2.5522966c1.6341553 1.6342077 2.552246 3.8506699 2.552246 6.161789l0 34.855293c0 4.8126564 -3.9014282 8.714085 -8.71405 8.714085l-83.86319 0c-4.8126526 0 -8.714081 -3.9014282 -8.714081 -8.714085z" fill-rule="evenodd"/><path fill="#000000" fill-opacity="0.0" d="m460.86282 27.065111l49.765167 0l0 21.452864l-49.765167 0l0 -21.452864z" fill-rule="nonzero"/><path fill="#000099" d="m462.30032 43.95412l0 -13.359377l4.609375 0q1.546875 0 2.375 0.203125q1.140625 0.25 1.953125 0.953125q1.0625 0.8906269 1.578125 2.281252q0.53125 1.390625 0.53125 3.171875q0 1.515625 -0.359375 2.703125q-0.359375 1.171875 -0.921875 1.9375q-0.546875 0.765625 -1.203125 1.21875q-0.65625 0.4375 -1.59375 0.671875q-0.9375 0.21875 -2.140625 0.21875l-4.828125 0zm1.765625 -1.578125l2.859375 0q1.3125 0 2.0625 -0.234375q0.75 -0.25 1.203125 -0.703125q0.625 -0.625 0.96875 -1.6875q0.359375 -1.0625 0.359375 -2.578125q0 -2.09375 -0.6875 -3.21875q-0.6875 -1.125 -1.671875 -1.5q-0.703125 -0.28125 -2.28125 -0.28125l-2.8125 0l0 10.203125zm18.12918 -1.53125l1.6875 0.203125q-0.40625 1.484375 -1.484375 2.3125q-1.078125 0.8125 -2.765625 0.8125q-2.125 0 -3.375 -1.296875q-1.234375 -1.3125 -1.234375 -3.671875q0 -2.453125 1.25 -3.796875q1.265625 -1.34375 3.265625 -1.34375q1.9375 0 3.15625 1.328125q1.234375 1.3125 1.234375 3.703125q0 0.15625 0 0.4375l-7.21875 0q0.09375 1.59375 0.90625 2.453125q0.8125 0.84375 2.015625 0.84375q0.90625 0 1.546875 -0.46875q0.640625 -0.484375 1.015625 -1.515625zm-5.390625 -2.65625l5.40625 0q-0.109375 -1.21875 -0.625 -1.828125q-0.78125 -0.953125 -2.03125 -0.953125q-1.125 0 -1.90625 0.765625q-0.765625 0.75 -0.84375 2.015625zm9.141357 5.765625l0 -9.671875l1.46875 0l0 1.359375q0.453125 -0.71875 1.203125 -1.140625q0.765625 -0.4375 1.71875 -0.4375q1.078125 0 1.765625 0.453125q0.6875 0.4375 0.96875 1.234375q1.15625 -1.6875 2.984375 -1.6875q1.453125 0 2.21875 0.796875q0.78125 0.796875 0.78125 2.453125l0 6.640625l-1.640625 0l0 -6.09375q0 -0.984375 -0.15625 -1.40625q-0.15625 -0.4375 -0.578125 -0.703125q-0.421875 -0.265625 -0.984375 -0.265625q-1.015625 0 -1.6875 0.6875q-0.671875 0.671875 -0.671875 2.15625l0 5.625l-1.640625 0l0 -6.28125q0 -1.09375 -0.40625 -1.640625q-0.40625 -0.546875 -1.3125 -0.546875q-0.6875 0 -1.28125 0.359375q-0.59375 0.359375 -0.859375 1.0625q-0.25 0.703125 -0.25 2.03125l0 5.015625l-1.640625 0zm14.931427 -4.84375q0 -2.6875 1.484375 -3.96875q1.25 -1.078125 3.046875 -1.078125q2.0 0 3.265625 1.3125q1.265625 1.296875 1.265625 3.609375q0 1.859375 -0.5625 2.9375q-0.5625 1.0625 -1.640625 1.65625q-1.0625 0.59375 -2.328125 0.59375q-2.03125 0 -3.28125 -1.296875q-1.25 -1.3125 -1.25 -3.765625zm1.6875 0q0 1.859375 0.796875 2.796875q0.8125 0.921875 2.046875 0.921875q1.21875 0 2.03125 -0.921875q0.8125 -0.9375 0.8125 -2.84375q0 -1.796875 -0.8125 -2.71875q-0.8125 -0.921875 -2.03125 -0.921875q-1.234375 0 -2.046875 0.921875q-0.796875 0.90625 -0.796875 2.765625z" fill-rule="nonzero"/><path fill="#010000" fill-opacity="0.0" d="m510.628 27.065111l0 0l0 21.452864l0 0l0 -21.452864z" fill-rule="nonzero"/><path fill="#000099" d="m460.86282 45.167454l49.765167 0l0 1.6800003l-49.765167 0l0 -1.6800003z" fill-rule="nonzero"/><a xlink:href="https://www.google.com/url?q=https://github.com/vburlai/chat-design-demo/tree/master/demo&amp;sa=D&amp;ust=1593870782465000&amp;usg=AFQjCNFIygiCCh6KypqF4PG6R_1_z022jg" target="_blank" rel="noreferrer"><path fill="transparent" fill-opacity="0" d="m460.86282 26.03412l49.765167 0l0 22.4l-49.765167 0l0 -22.4z" fill-rule="nonzero"/></a></g></svg>