<svg version="1.1" viewBox="0.0 0.0 960.0 720.0" fill="none" stroke="none" stroke-linecap="square" stroke-miterlimit="10" xmlns:xlink="http://www.w3.org/1999/xlink" xmlns="http://www.w3.org/2000/svg"><clipPath id="p.0"><path d="m0 0l960.0 0l0 720.0l-960.0 0l0 -720.0z" clip-rule="nonzero"/></clipPath><g clip-path="url(#p.0)"><path fill="#000000" fill-opacity="0.0" d="m0 0l960.0 0l0 720.0l-960.0 0z" fill-rule="evenodd"/><path fill="#000000" fill-opacity="0.0" d="m501.00592 329.65613l-101.322845 -170.4252" fill-rule="evenodd"/><path stroke="#000000" stroke-width="1.0" stroke-linejoin="round" stroke-linecap="butt" d="m501.00592 329.65613l-98.25665 -165.26784" fill-rule="evenodd"/><path fill="#000000" stroke="#000000" stroke-width="1.0" stroke-linecap="butt" d="m404.16904 163.5442l-3.7388916 -3.0566864l0.899353 4.744873z" fill-rule="evenodd"/><path fill="#cfe2f3" d="m179.46194 19.606474l0 0c0 -4.8126564 3.9014282 -8.714086 8.714081 -8.714086l83.86316 0c2.3111267 0 4.527588 0.9180889 6.161804 2.5522966c1.6342163 1.6342077 2.5523071 3.8506699 2.5523071 6.161789l0 34.855293c0 4.8126564 -3.9014587 8.714085 -8.714111 8.714085l-83.86316 0c-4.8126526 0 -8.714081 -3.9014282 -8.714081 -8.714085z" fill-rule="evenodd"/><path stroke="#000000" stroke-width="1.0" stroke-linejoin="round" stroke-linecap="butt" d="m179.46194 19.606474l0 0c0 -4.8126564 3.9014282 -8.714086 8.714081 -8.714086l83.86316 0c2.3111267 0 4.527588 0.9180889 6.161804 2.5522966c1.6342163 1.6342077 2.5523071 3.8506699 2.5523071 6.161789l0 34.855293c0 4.8126564 -3.9014587 8.714085 -8.714111 8.714085l-83.86316 0c-4.8126526 0 -8.714081 -3.9014282 -8.714081 -8.714085z" fill-rule="evenodd"/><path fill="#000000" fill-opacity="0.0" d="m209.8982 27.065111l40.41884 0l0 21.452864l-40.41884 0l0 -21.452864z" fill-rule="nonzero"/><path fill="#000099" d="m220.86694 39.26662l1.765625 0.453125q-0.5625 2.171875 -2.0 3.328125q-1.4375 1.140625 -3.53125 1.140625q-2.15625 0 -3.515625 -0.875q-1.34375 -0.890625 -2.0625 -2.546875q-0.703125 -1.671875 -0.703125 -3.59375q0 -2.078125 0.796875 -3.625q0.796875 -1.5625019 2.265625 -2.359377q1.484375 -0.8125 3.25 -0.8125q2.0 0 3.359375 1.015625q1.375 1.0156269 1.90625 2.875002l-1.734375 0.40625q-0.46875 -1.453125 -1.359375 -2.109375q-0.875 -0.6718769 -2.203125 -0.6718769q-1.546875 0 -2.578125 0.7343769q-1.03125 0.734375 -1.453125 1.984375q-0.421875 1.234375 -0.421875 2.5625q0 1.703125 0.5 2.96875q0.5 1.265625 1.546875 1.90625q1.046875 0.625 2.265625 0.625q1.484375 0 2.515625 -0.859375q1.03125 -0.859375 1.390625 -2.546875zm3.9416962 4.6875l0 -13.359377l4.609375 0q1.546875 0 2.375 0.203125q1.140625 0.25 1.953125 0.953125q1.0625 0.8906269 1.578125 2.281252q0.53125 1.390625 0.53125 3.171875q0 1.515625 -0.359375 2.703125q-0.359375 1.171875 -0.921875 1.9375q-0.546875 0.765625 -1.203125 1.21875q-0.65625 0.4375 -1.59375 0.671875q-0.9375 0.21875 -2.140625 0.21875l-4.828125 0zm1.765625 -1.578125l2.859375 0q1.3125 0 2.0625 -0.234375q0.75 -0.25 1.203125 -0.703125q0.625 -0.625 0.96875 -1.6875q0.359375 -1.0625 0.359375 -2.578125q0 -2.09375 -0.6875 -3.21875q-0.6875 -1.125 -1.671875 -1.5q-0.703125 -0.28125 -2.28125 -0.28125l-2.8125 0l0 10.203125zm11.691696 1.578125l0 -13.359377l1.8125 0l7.015625 10.484377l0 -10.484377l1.6875 0l0 13.359377l-1.8125 0l-7.015625 -10.5l0 10.5l-1.6875 0z" fill-rule="nonzero"/><path fill="#010000" fill-opacity="0.0" d="m250.31703 27.065111l0 0l0 21.452864l0 0l0 -21.452864z" fill-rule="nonzero"/><path fill="#000099" d="m209.8982 45.167454l40.41884 0l0 1.6800003l-40.41884 0l0 -1.6800003z" fill-rule="nonzero"/><a xlink:href="https://www.google.com/url?q=https://github.com/vburlai/chat-design-demo/tree/master/cdn&amp;sa=D&amp;ust=1593878914709000&amp;usg=AFQjCNF51f_83XbVQ5E33skYFllLzR4kAA" target="_blank" rel="noreferrer"><path fill="transparent" fill-opacity="0" d="m209.8982 26.03412l40.41884 0l0 22.4l-40.41884 0l0 -22.4z" fill-rule="nonzero"/></a><path fill="#cfe2f3" d="m13.070867 20.803307l0 0c0 -4.311098 3.494834 -7.805931 7.80593 -7.805931l85.679474 0c2.070259 0 4.0557327 0.8224077 5.519623 2.2863035c1.4638977 1.4638968 2.2863083 3.4493647 2.2863083 5.5196276l0 31.222782c0 4.3111 -3.494835 7.805931 -7.805931 7.805931l-85.679474 0c-4.311096 0 -7.80593 -3.494831 -7.80593 -7.805931z" fill-rule="evenodd"/><path stroke="#000000" stroke-width="1.0" stroke-linejoin="round" stroke-linecap="butt" d="m13.070867 20.803307l0 0c0 -4.311098 3.494834 -7.805931 7.80593 -7.805931l85.679474 0c2.070259 0 4.0557327 0.8224077 5.519623 2.2863035c1.4638977 1.4638968 2.2863083 3.4493647 2.2863083 5.5196276l0 31.222782c0 4.3111 -3.494835 7.805931 -7.805931 7.805931l-85.679474 0c-4.311096 0 -7.80593 -3.494831 -7.80593 -7.805931z" fill-rule="evenodd"/><path fill="#000000" fill-opacity="0.0" d="m32.08836 26.445688l47.69733 0l0 21.452864l-47.69733 0l0 -21.452864z" fill-rule="nonzero"/><path fill="#000099" d="m43.05711 38.647194l1.765625 0.453125q-0.5625 2.171875 -2.0 3.328125q-1.4375 1.140625 -3.53125 1.140625q-2.15625 0 -3.515625 -0.875q-1.34375 -0.890625 -2.0625 -2.546875q-0.703125 -1.671875 -0.703125 -3.59375q0 -2.078125 0.796875 -3.625q0.796875 -1.5624981 2.265625 -2.359373q1.484375 -0.8125 3.25 -0.8125q2.0 0 3.359375 1.015625q1.375 1.015625 1.90625 2.874998l-1.734375 0.40625q-0.46875 -1.453125 -1.359375 -2.109373q-0.875 -0.671875 -2.203125 -0.671875q-1.546875 0 -2.578125 0.7343731q-1.03125 0.734375 -1.453125 1.984375q-0.421875 1.234375 -0.421875 2.5625q0 1.703125 0.5 2.96875q0.5 1.265625 1.546875 1.90625q1.046875 0.625 2.265625 0.625q1.484375 0 2.515625 -0.859375q1.03125 -0.859375 1.390625 -2.546875zm3.6916962 4.6875l0 -13.359373l1.640625 0l0 13.359373l-1.640625 0zm4.191696 -11.468748l0 -1.890625l1.640625 0l0 1.890625l-1.640625 0zm0 11.468748l0 -9.671875l1.640625 0l0 9.671875l-1.640625 0zm10.769821 -3.109375l1.6875 0.203125q-0.40625 1.484375 -1.484375 2.3125q-1.078125 0.8125 -2.765625 0.8125q-2.125 0 -3.375 -1.296875q-1.234375 -1.3125 -1.234375 -3.671875q0 -2.453125 1.25 -3.796875q1.265625 -1.34375 3.265625 -1.34375q1.9375 0 3.15625 1.328125q1.234375 1.3125 1.234375 3.703125q0 0.15625 0 0.4375l-7.21875 0q0.09375 1.59375 0.90625 2.453125q0.8125 0.84375 2.015625 0.84375q0.90625 0 1.546875 -0.46875q0.640625 -0.484375 1.015625 -1.515625zm-5.390625 -2.65625l5.40625 0q-0.109375 -1.21875 -0.625 -1.828125q-0.78125 -0.953125 -2.03125 -0.953125q-1.125 0 -1.90625 0.765625q-0.765625 0.75 -0.84375 2.015625zm9.141346 5.765625l0 -9.671875l1.46875 0l0 1.375q1.0625 -1.59375 3.078125 -1.59375q0.875 0 1.609375 0.3125q0.734375 0.3125 1.09375 0.828125q0.375 0.5 0.515625 1.203125q0.09375 0.453125 0.09375 1.59375l0 5.953125l-1.640625 0l0 -5.890625q0 -1.0 -0.203125 -1.484375q-0.1875 -0.5 -0.671875 -0.796875q-0.484375 -0.296875 -1.140625 -0.296875q-1.046875 0 -1.8125 0.671875q-0.75 0.65625 -0.75 2.515625l0 5.28125l-1.640625 0zm13.953842 -1.46875l0.234375 1.453125q-0.6875 0.140625 -1.234375 0.140625q-0.890625 0 -1.390625 -0.28125q-0.484375 -0.28125 -0.6875 -0.734375q-0.203125 -0.46875 -0.203125 -1.9375l0 -5.578125l-1.203125 0l0 -1.265625l1.203125 0l0 -2.390623l1.625 -0.984375l0 3.374998l1.65625 0l0 1.265625l-1.65625 0l0 5.671875q0 0.6875 0.078125 0.890625q0.09375 0.203125 0.28125 0.328125q0.203125 0.109375 0.578125 0.109375q0.265625 0 0.71875 -0.0625z" fill-rule="nonzero"/><path fill="#000000" d="m91.92212 43.334694l-1.640625 0l0 -10.453125q-0.59375 0.5625 -1.5625 1.140625q-0.953125 0.5625 -1.71875 0.84375l0 -1.59375q1.375 -0.640625 2.40625 -1.5624981q1.03125 -0.921875 1.453125 -1.78125l1.0625 0l0 13.406248z" fill-rule="nonzero"/><path fill="#000099" d="m32.08836 44.548027l47.69733 0l0 1.6800003l-47.69733 0l0 -1.6800003z" fill-rule="nonzero"/><a xlink:href="https://www.google.com/url?q=https://github.com/vburlai/chat-design-demo/tree/master/cdn/client&amp;sa=D&amp;ust=1593878914712000&amp;usg=AFQjCNHDASnhMx764hkjvnPwiZzs_KYqzQ" target="_blank" rel="noreferrer"><path fill="transparent" fill-opacity="0" d="m32.08836 25.414698l47.69733 0l0 22.399996l-47.69733 0l0 -22.399996z" fill-rule="nonzero"/></a><path fill="#cfe2f3" d="m13.070867 84.80331l0 0c0 -4.311096 3.494834 -7.805931 7.80593 -7.805931l85.679474 0c2.070259 0 4.0557327 0.8224106 5.519623 2.2863007c1.4638977 1.4638977 2.2863083 3.4493713 2.2863083 5.5196304l0 31.222786c0 4.311096 -3.494835 7.805931 -7.805931 7.805931l-85.679474 0c-4.311096 0 -7.80593 -3.494835 -7.80593 -7.805931z" fill-rule="evenodd"/><path stroke="#000000" stroke-width="1.0" stroke-linejoin="round" stroke-linecap="butt" d="m13.070867 84.80331l0 0c0 -4.311096 3.494834 -7.805931 7.80593 -7.805931l85.679474 0c2.070259 0 4.0557327 0.8224106 5.519623 2.2863007c1.4638977 1.4638977 2.2863083 3.4493713 2.2863083 5.5196304l0 31.222786c0 4.311096 -3.494835 7.805931 -7.805931 7.805931l-85.679474 0c-4.311096 0 -7.80593 -3.494835 -7.80593 -7.805931z" fill-rule="evenodd"/><path fill="#000000" fill-opacity="0.0" d="m32.08836 90.44569l47.69733 0l0 21.452866l-47.69733 0l0 -21.452866z" fill-rule="nonzero"/><path fill="#000099" d="m43.05711 102.647194l1.765625 0.453125q-0.5625 2.171875 -2.0 3.328125q-1.4375 1.140625 -3.53125 1.140625q-2.15625 0 -3.515625 -0.875q-1.34375 -0.890625 -2.0625 -2.546875q-0.703125 -1.671875 -0.703125 -3.59375q0 -2.078125 0.796875 -3.625q0.796875 -1.5625 2.265625 -2.359375q1.484375 -0.8125 3.25 -0.8125q2.0 0 3.359375 1.015625q1.375 1.015625 1.90625 2.875l-1.734375 0.40625q-0.46875 -1.453125 -1.359375 -2.109375q-0.875 -0.671875 -2.203125 -0.671875q-1.546875 0 -2.578125 0.734375q-1.03125 0.734375 -1.453125 1.984375q-0.421875 1.234375 -0.421875 2.5625q0 1.703125 0.5 2.96875q0.5 1.265625 1.546875 1.90625q1.046875 0.625 2.265625 0.625q1.484375 0 2.515625 -0.859375q1.03125 -0.859375 1.390625 -2.546875zm3.6916962 4.6875l0 -13.359375l1.640625 0l0 13.359375l-1.640625 0zm4.191696 -11.46875l0 -1.890625l1.640625 0l0 1.890625l-1.640625 0zm0 11.46875l0 -9.671875l1.640625 0l0 9.671875l-1.640625 0zm10.769821 -3.109375l1.6875 0.203125q-0.40625 1.484375 -1.484375 2.3125q-1.078125 0.8125 -2.765625 0.8125q-2.125 0 -3.375 -1.296875q-1.234375 -1.3125 -1.234375 -3.671875q0 -2.453125 1.25 -3.796875q1.265625 -1.34375 3.265625 -1.34375q1.9375 0 3.15625 1.328125q1.234375 1.3125 1.234375 3.703125q0 0.15625 0 0.4375l-7.21875 0q0.09375 1.59375 0.90625 2.453125q0.8125 0.84375 2.015625 0.84375q0.90625 0 1.546875 -0.46875q0.640625 -0.484375 1.015625 -1.515625zm-5.390625 -2.65625l5.40625 0q-0.109375 -1.21875 -0.625 -1.828125q-0.78125 -0.953125 -2.03125 -0.953125q-1.125 0 -1.90625 0.765625q-0.765625 0.75 -0.84375 2.015625zm9.141346 5.765625l0 -9.671875l1.46875 0l0 1.375q1.0625 -1.59375 3.078125 -1.59375q0.875 0 1.609375 0.3125q0.734375 0.3125 1.09375 0.828125q0.375 0.5 0.515625 1.203125q0.09375 0.453125 0.09375 1.59375l0 5.953125l-1.640625 0l0 -5.890625q0 -1.0 -0.203125 -1.484375q-0.1875 -0.5 -0.671875 -0.796875q-0.484375 -0.296875 -1.140625 -0.296875q-1.046875 0 -1.8125 0.671875q-0.75 0.65625 -0.75 2.515625l0 5.28125l-1.640625 0zm13.953842 -1.46875l0.234375 1.453125q-0.6875 0.140625 -1.234375 0.140625q-0.890625 0 -1.390625 -0.28125q-0.484375 -0.28125 -0.6875 -0.734375q-0.203125 -0.46875 -0.203125 -1.9375l0 -5.578125l-1.203125 0l0 -1.265625l1.203125 0l0 -2.390625l1.625 -0.984375l0 3.375l1.65625 0l0 1.265625l-1.65625 0l0 5.671875q0 0.6875 0.078125 0.890625q0.09375 0.203125 0.28125 0.328125q0.203125 0.109375 0.578125 0.109375q0.265625 0 0.71875 -0.0625z" fill-rule="nonzero"/><path fill="#000000" d="m94.35962 105.75657l0 1.578125l-8.828125 0q-0.015625 -0.59375 0.1875 -1.140625q0.34375 -0.90625 1.078125 -1.78125q0.75 -0.875 2.15625 -2.015625q2.171875 -1.78125 2.9375 -2.828125q0.765625 -1.046875 0.765625 -1.96875q0 -0.984375 -0.703125 -1.640625q-0.6875 -0.671875 -1.8125 -0.671875q-1.1875 0 -1.90625 0.71875q-0.703125 0.703125 -0.703125 1.953125l-1.6875 -0.171875q0.171875 -1.890625 1.296875 -2.875q1.140625 -0.984375 3.03125 -0.984375q1.921875 0 3.046875 1.0625q1.125 1.0625 1.125 2.640625q0 0.796875 -0.328125 1.578125q-0.328125 0.78125 -1.09375 1.640625q-0.75 0.84375 -2.53125 2.34375q-1.46875 1.234375 -1.890625 1.6875q-0.421875 0.4375 -0.6875 0.875l6.546875 0z" fill-rule="nonzero"/><path fill="#000099" d="m32.08836 108.54803l47.69733 0l0 1.6800003l-47.69733 0l0 -1.6800003z" fill-rule="nonzero"/><a xlink:href="https://www.google.com/url?q=https://github.com/vburlai/chat-design-demo/tree/master/cdn/client&amp;sa=D&amp;ust=1593878914715000&amp;usg=AFQjCNEWMXfpH5cyupCxBmI4_t_I605vhg" target="_blank" rel="noreferrer"><path fill="transparent" fill-opacity="0" d="m32.08836 89.414696l47.69733 0l0 22.400002l-47.69733 0l0 -22.400002z" fill-rule="nonzero"/></a><path fill="#cfe2f3" d="m13.070867 148.8033l0 0c0 -4.311096 3.494834 -7.8059235 7.80593 -7.8059235l85.679474 0c2.070259 0 4.0557327 0.82240295 5.519623 2.2863007c1.4638977 1.4638977 2.2863083 3.4493713 2.2863083 5.519623l0 31.222794c0 4.311096 -3.494835 7.8059235 -7.805931 7.8059235l-85.679474 0c-4.311096 0 -7.80593 -3.4948273 -7.80593 -7.8059235z" fill-rule="evenodd"/><path stroke="#000000" stroke-width="1.0" stroke-linejoin="round" stroke-linecap="butt" d="m13.070867 148.8033l0 0c0 -4.311096 3.494834 -7.8059235 7.80593 -7.8059235l85.679474 0c2.070259 0 4.0557327 0.82240295 5.519623 2.2863007c1.4638977 1.4638977 2.2863083 3.4493713 2.2863083 5.519623l0 31.222794c0 4.311096 -3.494835 7.8059235 -7.805931 7.8059235l-85.679474 0c-4.311096 0 -7.80593 -3.4948273 -7.80593 -7.8059235z" fill-rule="evenodd"/><path fill="#000000" fill-opacity="0.0" d="m32.08836 154.4457l47.69733 0l0 21.452866l-47.69733 0l0 -21.452866z" fill-rule="nonzero"/><path fill="#000099" d="m43.05711 166.6472l1.765625 0.453125q-0.5625 2.171875 -2.0 3.328125q-1.4375 1.140625 -3.53125 1.140625q-2.15625 0 -3.515625 -0.875q-1.34375 -0.890625 -2.0625 -2.546875q-0.703125 -1.671875 -0.703125 -3.59375q0 -2.078125 0.796875 -3.625q0.796875 -1.5625 2.265625 -2.359375q1.484375 -0.8125 3.25 -0.8125q2.0 0 3.359375 1.015625q1.375 1.015625 1.90625 2.875l-1.734375 0.40625q-0.46875 -1.453125 -1.359375 -2.109375q-0.875 -0.671875 -2.203125 -0.671875q-1.546875 0 -2.578125 0.734375q-1.03125 0.734375 -1.453125 1.984375q-0.421875 1.234375 -0.421875 2.5625q0 1.703125 0.5 2.96875q0.5 1.265625 1.546875 1.90625q1.046875 0.625 2.265625 0.625q1.484375 0 2.515625 -0.859375q1.03125 -0.859375 1.390625 -2.546875zm3.6916962 4.6875l0 -13.359375l1.640625 0l0 13.359375l-1.640625 0zm4.191696 -11.46875l0 -1.890625l1.640625 0l0 1.890625l-1.640625 0zm0 11.46875l0 -9.671875l1.640625 0l0 9.671875l-1.640625 0zm10.769821 -3.109375l1.6875 0.203125q-0.40625 1.484375 -1.484375 2.3125q-1.078125 0.8125 -2.765625 0.8125q-2.125 0 -3.375 -1.296875q-1.234375 -1.3125 -1.234375 -3.671875q0 -2.453125 1.25 -3.796875q1.265625 -1.34375 3.265625 -1.34375q1.9375 0 3.15625 1.328125q1.234375 1.3125 1.234375 3.703125q0 0.15625 0 0.4375l-7.21875 0q0.09375 1.59375 0.90625 2.453125q0.8125 0.84375 2.015625 0.84375q0.90625 0 1.546875 -0.46875q0.640625 -0.484375 1.015625 -1.515625zm-5.390625 -2.65625l5.40625 0q-0.109375 -1.21875 -0.625 -1.828125q-0.78125 -0.953125 -2.03125 -0.953125q-1.125 0 -1.90625 0.765625q-0.765625 0.75 -0.84375 2.015625zm9.141346 5.765625l0 -9.671875l1.46875 0l0 1.375q1.0625 -1.59375 3.078125 -1.59375q0.875 0 1.609375 0.3125q0.734375 0.3125 1.09375 0.828125q0.375 0.5 0.515625 1.203125q0.09375 0.453125 0.09375 1.59375l0 5.953125l-1.640625 0l0 -5.890625q0 -1.0 -0.203125 -1.484375q-0.1875 -0.5 -0.671875 -0.796875q-0.484375 -0.296875 -1.140625 -0.296875q-1.046875 0 -1.8125 0.671875q-0.75 0.65625 -0.75 2.515625l0 5.28125l-1.640625 0zm13.953842 -1.46875l0.234375 1.453125q-0.6875 0.140625 -1.234375 0.140625q-0.890625 0 -1.390625 -0.28125q-0.484375 -0.28125 -0.6875 -0.734375q-0.203125 -0.46875 -0.203125 -1.9375l0 -5.578125l-1.203125 0l0 -1.265625l1.203125 0l0 -2.390625l1.625 -0.984375l0 3.375l1.65625 0l0 1.265625l-1.65625 0l0 5.671875q0 0.6875 0.078125 0.890625q0.09375 0.203125 0.28125 0.328125q0.203125 0.109375 0.578125 0.109375q0.265625 0 0.71875 -0.0625z" fill-rule="nonzero"/><path fill="#000000" d="m85.750244 167.80345l1.640625 -0.21875q0.28125 1.40625 0.953125 2.015625q0.6875 0.609375 1.65625 0.609375q1.15625 0 1.953125 -0.796875q0.796875 -0.796875 0.796875 -1.984375q0 -1.125 -0.734375 -1.859375q-0.734375 -0.734375 -1.875 -0.734375q-0.46875 0 -1.15625 0.171875l0.1875 -1.4375q0.15625 0.015625 0.265625 0.015625q1.046875 0 1.875 -0.546875q0.84375 -0.546875 0.84375 -1.671875q0 -0.90625 -0.609375 -1.5q-0.609375 -0.59375 -1.578125 -0.59375q-0.953125 0 -1.59375 0.609375q-0.640625 0.59375 -0.8125 1.796875l-1.640625 -0.296875q0.296875 -1.640625 1.359375 -2.546875q1.0625 -0.90625 2.65625 -0.90625q1.09375 0 2.0 0.46875q0.921875 0.46875 1.40625 1.28125q0.5 0.8125 0.5 1.71875q0 0.859375 -0.46875 1.578125q-0.46875 0.703125 -1.375 1.125q1.1875 0.28125 1.84375 1.140625q0.65625 0.859375 0.65625 2.15625q0 1.734375 -1.28125 2.953125q-1.265625 1.21875 -3.21875 1.21875q-1.765625 0 -2.921875 -1.046875q-1.15625 -1.046875 -1.328125 -2.71875z" fill-rule="nonzero"/><path fill="#000099" d="m32.08836 172.54803l47.69733 0l0 1.6799927l-47.69733 0l0 -1.6799927z" fill-rule="nonzero"/><a xlink:href="https://www.google.com/url?q=https://github.com/vburlai/chat-design-demo/tree/master/cdn/client&amp;sa=D&amp;ust=1593878914718000&amp;usg=AFQjCNH-iSjz6yg5JP8sRrTiv5ZAej_w9g" target="_blank" rel="noreferrer"><path fill="transparent" fill-opacity="0" d="m32.08836 153.4147l47.69733 0l0 22.399994l-47.69733 0l0 -22.399994z" fill-rule="nonzero"/></a><path fill="#cfe2f3" d="m13.070867 212.8033l0 0c0 -4.311096 3.494834 -7.8059235 7.80593 -7.8059235l85.679474 0c2.070259 0 4.0557327 0.82240295 5.519623 2.2863007c1.4638977 1.4638977 2.2863083 3.4493713 2.2863083 5.519623l0 31.222794c0 4.311096 -3.494835 7.8059235 -7.805931 7.8059235l-85.679474 0c-4.311096 0 -7.80593 -3.4948273 -7.80593 -7.8059235z" fill-rule="evenodd"/><path stroke="#000000" stroke-width="1.0" stroke-linejoin="round" stroke-linecap="butt" d="m13.070867 212.8033l0 0c0 -4.311096 3.494834 -7.8059235 7.80593 -7.8059235l85.679474 0c2.070259 0 4.0557327 0.82240295 5.519623 2.2863007c1.4638977 1.4638977 2.2863083 3.4493713 2.2863083 5.519623l0 31.222794c0 4.311096 -3.494835 7.8059235 -7.805931 7.8059235l-85.679474 0c-4.311096 0 -7.80593 -3.4948273 -7.80593 -7.8059235z" fill-rule="evenodd"/><path fill="#000000" fill-opacity="0.0" d="m32.08836 218.4457l47.69733 0l0 21.452866l-47.69733 0l0 -21.452866z" fill-rule="nonzero"/><path fill="#000099" d="m43.05711 230.6472l1.765625 0.453125q-0.5625 2.171875 -2.0 3.328125q-1.4375 1.140625 -3.53125 1.140625q-2.15625 0 -3.515625 -0.875q-1.34375 -0.890625 -2.0625 -2.546875q-0.703125 -1.671875 -0.703125 -3.59375q0 -2.078125 0.796875 -3.625q0.796875 -1.5625 2.265625 -2.359375q1.484375 -0.8125 3.25 -0.8125q2.0 0 3.359375 1.015625q1.375 1.015625 1.90625 2.875l-1.734375 0.40625q-0.46875 -1.453125 -1.359375 -2.109375q-0.875 -0.671875 -2.203125 -0.671875q-1.546875 0 -2.578125 0.734375q-1.03125 0.734375 -1.453125 1.984375q-0.421875 1.234375 -0.421875 2.5625q0 1.703125 0.5 2.96875q0.5 1.265625 1.546875 1.90625q1.046875 0.625 2.265625 0.625q1.484375 0 2.515625 -0.859375q1.03125 -0.859375 1.390625 -2.546875zm3.6916962 4.6875l0 -13.359375l1.640625 0l0 13.359375l-1.640625 0zm4.191696 -11.46875l0 -1.890625l1.640625 0l0 1.890625l-1.640625 0zm0 11.46875l0 -9.671875l1.640625 0l0 9.671875l-1.640625 0zm10.769821 -3.109375l1.6875 0.203125q-0.40625 1.484375 -1.484375 2.3125q-1.078125 0.8125 -2.765625 0.8125q-2.125 0 -3.375 -1.296875q-1.234375 -1.3125 -1.234375 -3.671875q0 -2.453125 1.25 -3.796875q1.265625 -1.34375 3.265625 -1.34375q1.9375 0 3.15625 1.328125q1.234375 1.3125 1.234375 3.703125q0 0.15625 0 0.4375l-7.21875 0q0.09375 1.59375 0.90625 2.453125q0.8125 0.84375 2.015625 0.84375q0.90625 0 1.546875 -0.46875q0.640625 -0.484375 1.015625 -1.515625zm-5.390625 -2.65625l5.40625 0q-0.109375 -1.21875 -0.625 -1.828125q-0.78125 -0.953125 -2.03125 -0.953125q-1.125 0 -1.90625 0.765625q-0.765625 0.75 -0.84375 2.015625zm9.141346 5.765625l0 -9.671875l1.46875 0l0 1.375q1.0625 -1.59375 3.078125 -1.59375q0.875 0 1.609375 0.3125q0.734375 0.3125 1.09375 0.828125q0.375 0.5 0.515625 1.203125q0.09375 0.453125 0.09375 1.59375l0 5.953125l-1.640625 0l0 -5.890625q0 -1.0 -0.203125 -1.484375q-0.1875 -0.5 -0.671875 -0.796875q-0.484375 -0.296875 -1.140625 -0.296875q-1.046875 0 -1.8125 0.671875q-0.75 0.65625 -0.75 2.515625l0 5.28125l-1.640625 0zm13.953842 -1.46875l0.234375 1.453125q-0.6875 0.140625 -1.234375 0.140625q-0.890625 0 -1.390625 -0.28125q-0.484375 -0.28125 -0.6875 -0.734375q-0.203125 -0.46875 -0.203125 -1.9375l0 -5.578125l-1.203125 0l0 -1.265625l1.203125 0l0 -2.390625l1.625 -0.984375l0 3.375l1.65625 0l0 1.265625l-1.65625 0l0 5.671875q0 0.6875 0.078125 0.890625q0.09375 0.203125 0.28125 0.328125q0.203125 0.109375 0.578125 0.109375q0.265625 0 0.71875 -0.0625z" fill-rule="nonzero"/><path fill="#000000" d="m91.000244 235.3347l0 -3.203125l-5.796875 0l0 -1.5l6.09375 -8.65625l1.34375 0l0 8.65625l1.796875 0l0 1.5l-1.796875 0l0 3.203125l-1.640625 0zm0 -4.703125l0 -6.015625l-4.1875 6.015625l4.1875 0z" fill-rule="nonzero"/><path fill="#000099" d="m32.08836 236.54803l47.69733 0l0 1.6799927l-47.69733 0l0 -1.6799927z" fill-rule="nonzero"/><a xlink:href="https://www.google.com/url?q=https://github.com/vburlai/chat-design-demo/tree/master/cdn/client&amp;sa=D&amp;ust=1593878914720000&amp;usg=AFQjCNH1r1l44bceFOBnv8finRp9lmQXCg" target="_blank" rel="noreferrer"><path fill="transparent" fill-opacity="0" d="m32.08836 217.4147l47.69733 0l0 22.399994l-47.69733 0l0 -22.399994z" fill-rule="nonzero"/></a><path fill="#cfe2f3" d="m13.070867 276.8033l0 0c0 -4.311096 3.494834 -7.8059387 7.80593 -7.8059387l85.679474 0c2.070259 0 4.0557327 0.8224182 5.519623 2.286316c1.4638977 1.4638977 2.2863083 3.4493408 2.2863083 5.519623l0 31.222778c0 4.311096 -3.494835 7.8059387 -7.805931 7.8059387l-85.679474 0c-4.311096 0 -7.80593 -3.4948425 -7.80593 -7.8059387z" fill-rule="evenodd"/><path stroke="#000000" stroke-width="1.0" stroke-linejoin="round" stroke-linecap="butt" d="m13.070867 276.8033l0 0c0 -4.311096 3.494834 -7.8059387 7.80593 -7.8059387l85.679474 0c2.070259 0 4.0557327 0.8224182 5.519623 2.286316c1.4638977 1.4638977 2.2863083 3.4493408 2.2863083 5.519623l0 31.222778c0 4.311096 -3.494835 7.8059387 -7.805931 7.8059387l-85.679474 0c-4.311096 0 -7.80593 -3.4948425 -7.80593 -7.8059387z" fill-rule="evenodd"/><path fill="#000000" fill-opacity="0.0" d="m32.08836 282.44568l47.69733 0l0 21.45288l-47.69733 0l0 -21.45288z" fill-rule="nonzero"/><path fill="#000099" d="m43.05711 294.6472l1.765625 0.453125q-0.5625 2.171875 -2.0 3.328125q-1.4375 1.140625 -3.53125 1.140625q-2.15625 0 -3.515625 -0.875q-1.34375 -0.890625 -2.0625 -2.546875q-0.703125 -1.671875 -0.703125 -3.59375q0 -2.078125 0.796875 -3.625q0.796875 -1.5625 2.265625 -2.359375q1.484375 -0.8125 3.25 -0.8125q2.0 0 3.359375 1.015625q1.375 1.015625 1.90625 2.875l-1.734375 0.40625q-0.46875 -1.453125 -1.359375 -2.109375q-0.875 -0.671875 -2.203125 -0.671875q-1.546875 0 -2.578125 0.734375q-1.03125 0.734375 -1.453125 1.984375q-0.421875 1.234375 -0.421875 2.5625q0 1.703125 0.5 2.96875q0.5 1.265625 1.546875 1.90625q1.046875 0.625 2.265625 0.625q1.484375 0 2.515625 -0.859375q1.03125 -0.859375 1.390625 -2.546875zm3.6916962 4.6875l0 -13.359375l1.640625 0l0 13.359375l-1.640625 0zm4.191696 -11.46875l0 -1.890625l1.640625 0l0 1.890625l-1.640625 0zm0 11.46875l0 -9.671875l1.640625 0l0 9.671875l-1.640625 0zm10.769821 -3.109375l1.6875 0.203125q-0.40625 1.484375 -1.484375 2.3125q-1.078125 0.8125 -2.765625 0.8125q-2.125 0 -3.375 -1.296875q-1.234375 -1.3125 -1.234375 -3.671875q0 -2.453125 1.25 -3.796875q1.265625 -1.34375 3.265625 -1.34375q1.9375 0 3.15625 1.328125q1.234375 1.3125 1.234375 3.703125q0 0.15625 0 0.4375l-7.21875 0q0.09375 1.59375 0.90625 2.453125q0.8125 0.84375 2.015625 0.84375q0.90625 0 1.546875 -0.46875q0.640625 -0.484375 1.015625 -1.515625zm-5.390625 -2.65625l5.40625 0q-0.109375 -1.21875 -0.625 -1.828125q-0.78125 -0.953125 -2.03125 -0.953125q-1.125 0 -1.90625 0.765625q-0.765625 0.75 -0.84375 2.015625zm9.141346 5.765625l0 -9.671875l1.46875 0l0 1.375q1.0625 -1.59375 3.078125 -1.59375q0.875 0 1.609375 0.3125q0.734375 0.3125 1.09375 0.828125q0.375 0.5 0.515625 1.203125q0.09375 0.453125 0.09375 1.59375l0 5.953125l-1.640625 0l0 -5.890625q0 -1.0 -0.203125 -1.484375q-0.1875 -0.5 -0.671875 -0.796875q-0.484375 -0.296875 -1.140625 -0.296875q-1.046875 0 -1.8125 0.671875q-0.75 0.65625 -0.75 2.515625l0 5.28125l-1.640625 0zm13.953842 -1.46875l0.234375 1.453125q-0.6875 0.140625 -1.234375 0.140625q-0.890625 0 -1.390625 -0.28125q-0.484375 -0.28125 -0.6875 -0.734375q-0.203125 -0.46875 -0.203125 -1.9375l0 -5.578125l-1.203125 0l0 -1.265625l1.203125 0l0 -2.390625l1.625 -0.984375l0 3.375l1.65625 0l0 1.265625l-1.65625 0l0 5.671875q0 0.6875 0.078125 0.890625q0.09375 0.203125 0.28125 0.328125q0.203125 0.109375 0.578125 0.109375q0.265625 0 0.71875 -0.0625z" fill-rule="nonzero"/><path fill="#000000" d="m85.750244 295.8347l1.71875 -0.140625q0.1875 1.25 0.875 1.890625q0.703125 0.625 1.6875 0.625q1.1875 0 2.0 -0.890625q0.828125 -0.890625 0.828125 -2.359375q0 -1.40625 -0.796875 -2.21875q-0.78125 -0.8125 -2.0625 -0.8125q-0.78125 0 -1.421875 0.359375q-0.640625 0.359375 -1.0 0.9375l-1.546875 -0.203125l1.296875 -6.859375l6.640625 0l0 1.5625l-5.328125 0l-0.71875 3.59375q1.203125 -0.84375 2.515625 -0.84375q1.75 0 2.953125 1.21875q1.203125 1.203125 1.203125 3.109375q0 1.8125 -1.046875 3.140625q-1.296875 1.625 -3.515625 1.625q-1.8125 0 -2.96875 -1.015625q-1.15625 -1.03125 -1.3125 -2.71875z" fill-rule="nonzero"/><path fill="#000099" d="m32.08836 300.54803l47.69733 0l0 1.6799927l-47.69733 0l0 -1.6799927z" fill-rule="nonzero"/><a xlink:href="https://www.google.com/url?q=https://github.com/vburlai/chat-design-demo/tree/master/cdn/client&amp;sa=D&amp;ust=1593878914722000&amp;usg=AFQjCNEFm5I48jDyyaubHaVlpbph2LZjfA" target="_blank" rel="noreferrer"><path fill="transparent" fill-opacity="0" d="m32.08836 281.4147l47.69733 0l0 22.399994l-47.69733 0l0 -22.399994z" fill-rule="nonzero"/></a><path fill="#cfe2f3" d="m13.070867 340.8033l0 0c0 -4.311096 3.494834 -7.8059387 7.80593 -7.8059387l85.679474 0c2.070259 0 4.0557327 0.8224182 5.519623 2.286316c1.4638977 1.4638977 2.2863083 3.4493408 2.2863083 5.519623l0 31.222778c0 4.311096 -3.494835 7.8059387 -7.805931 7.8059387l-85.679474 0c-4.311096 0 -7.80593 -3.4948425 -7.80593 -7.8059387z" fill-rule="evenodd"/><path stroke="#000000" stroke-width="1.0" stroke-linejoin="round" stroke-linecap="butt" d="m13.070867 340.8033l0 0c0 -4.311096 3.494834 -7.8059387 7.80593 -7.8059387l85.679474 0c2.070259 0 4.0557327 0.8224182 5.519623 2.286316c1.4638977 1.4638977 2.2863083 3.4493408 2.2863083 5.519623l0 31.222778c0 4.311096 -3.494835 7.8059387 -7.805931 7.8059387l-85.679474 0c-4.311096 0 -7.80593 -3.4948425 -7.80593 -7.8059387z" fill-rule="evenodd"/><path fill="#000000" fill-opacity="0.0" d="m32.08836 346.44568l47.69733 0l0 21.45288l-47.69733 0l0 -21.45288z" fill-rule="nonzero"/><path fill="#000099" d="m43.05711 358.6472l1.765625 0.453125q-0.5625 2.171875 -2.0 3.328125q-1.4375 1.140625 -3.53125 1.140625q-2.15625 0 -3.515625 -0.875q-1.34375 -0.890625 -2.0625 -2.546875q-0.703125 -1.671875 -0.703125 -3.59375q0 -2.078125 0.796875 -3.625q0.796875 -1.5625 2.265625 -2.359375q1.484375 -0.8125 3.25 -0.8125q2.0 0 3.359375 1.015625q1.375 1.015625 1.90625 2.875l-1.734375 0.40625q-0.46875 -1.453125 -1.359375 -2.109375q-0.875 -0.671875 -2.203125 -0.671875q-1.546875 0 -2.578125 0.734375q-1.03125 0.734375 -1.453125 1.984375q-0.421875 1.234375 -0.421875 2.5625q0 1.703125 0.5 2.96875q0.5 1.265625 1.546875 1.90625q1.046875 0.625 2.265625 0.625q1.484375 0 2.515625 -0.859375q1.03125 -0.859375 1.390625 -2.546875zm3.6916962 4.6875l0 -13.359375l1.640625 0l0 13.359375l-1.640625 0zm4.191696 -11.46875l0 -1.890625l1.640625 0l0 1.890625l-1.640625 0zm0 11.46875l0 -9.671875l1.640625 0l0 9.671875l-1.640625 0zm10.769821 -3.109375l1.6875 0.203125q-0.40625 1.484375 -1.484375 2.3125q-1.078125 0.8125 -2.765625 0.8125q-2.125 0 -3.375 -1.296875q-1.234375 -1.3125 -1.234375 -3.671875q0 -2.453125 1.25 -3.796875q1.265625 -1.34375 3.265625 -1.34375q1.9375 0 3.15625 1.328125q1.234375 1.3125 1.234375 3.703125q0 0.15625 0 0.4375l-7.21875 0q0.09375 1.59375 0.90625 2.453125q0.8125 0.84375 2.015625 0.84375q0.90625 0 1.546875 -0.46875q0.640625 -0.484375 1.015625 -1.515625zm-5.390625 -2.65625l5.40625 0q-0.109375 -1.21875 -0.625 -1.828125q-0.78125 -0.953125 -2.03125 -0.953125q-1.125 0 -1.90625 0.765625q-0.765625 0.75 -0.84375 2.015625zm9.141346 5.765625l0 -9.671875l1.46875 0l0 1.375q1.0625 -1.59375 3.078125 -1.59375q0.875 0 1.609375 0.3125q0.734375 0.3125 1.09375 0.828125q0.375 0.5 0.515625 1.203125q0.09375 0.453125 0.09375 1.59375l0 5.953125l-1.640625 0l0 -5.890625q0 -1.0 -0.203125 -1.484375q-0.1875 -0.5 -0.671875 -0.796875q-0.484375 -0.296875 -1.140625 -0.296875q-1.046875 0 -1.8125 0.671875q-0.75 0.65625 -0.75 2.515625l0 5.28125l-1.640625 0zm13.953842 -1.46875l0.234375 1.453125q-0.6875 0.140625 -1.234375 0.140625q-0.890625 0 -1.390625 -0.28125q-0.484375 -0.28125 -0.6875 -0.734375q-0.203125 -0.46875 -0.203125 -1.9375l0 -5.578125l-1.203125 0l0 -1.265625l1.203125 0l0 -2.390625l1.625 -0.984375l0 3.375l1.65625 0l0 1.265625l-1.65625 0l0 5.671875q0 0.6875 0.078125 0.890625q0.09375 0.203125 0.28125 0.328125q0.203125 0.109375 0.578125 0.109375q0.265625 0 0.71875 -0.0625z" fill-rule="nonzero"/><path fill="#000000" d="m94.250244 353.25656l-1.625 0.125q-0.21875 -0.96875 -0.625 -1.40625q-0.65625 -0.703125 -1.640625 -0.703125q-0.78125 0 -1.375 0.4375q-0.765625 0.5625 -1.21875 1.65625q-0.453125 1.078125 -0.46875 3.078125q0.59375 -0.890625 1.453125 -1.328125q0.859375 -0.4375 1.796875 -0.4375q1.640625 0 2.78125 1.203125q1.15625 1.203125 1.15625 3.109375q0 1.265625 -0.546875 2.34375q-0.53125 1.078125 -1.484375 1.65625q-0.9375 0.578125 -2.140625 0.578125q-2.0625 0 -3.359375 -1.5q-1.28125 -1.515625 -1.28125 -4.984375q0 -3.875 1.421875 -5.625q1.25 -1.53125 3.375 -1.53125q1.5625 0 2.5625 0.890625q1.015625 0.875 1.21875 2.4375zm-6.6875 5.75q0 0.84375 0.359375 1.625q0.359375 0.765625 1.0 1.171875q0.640625 0.40625 1.359375 0.40625q1.03125 0 1.78125 -0.828125q0.75 -0.84375 0.75 -2.28125q0 -1.390625 -0.734375 -2.1875q-0.734375 -0.796875 -1.859375 -0.796875q-1.109375 0 -1.890625 0.796875q-0.765625 0.796875 -0.765625 2.09375z" fill-rule="nonzero"/><path fill="#000099" d="m32.08836 364.54803l47.69733 0l0 1.6799927l-47.69733 0l0 -1.6799927z" fill-rule="nonzero"/><a xlink:href="https://www.google.com/url?q=https://github.com/vburlai/chat-design-demo/tree/master/cdn/client&amp;sa=D&amp;ust=1593878914724000&amp;usg=AFQjCNGiiFDD2bxl2WKCP6CUr4IhUXaZjA" target="_blank" rel="noreferrer"><path fill="transparent" fill-opacity="0" d="m32.08836 345.4147l47.69733 0l0 22.399994l-47.69733 0l0 -22.399994z" fill-rule="nonzero"/></a><path fill="#000000" fill-opacity="0.0" d="m179.46194 37.034122l-65.10236 -0.6299248" fill-rule="evenodd"/><path stroke="#000000" stroke-width="1.0" stroke-linejoin="round" stroke-linecap="butt" d="m179.46194 37.034122l-59.10264 -0.5718689" fill-rule="evenodd"/><path fill="#000000" stroke="#000000" stroke-width="1.0" stroke-linecap="butt" d="m120.37528 34.810596l-4.553871 1.6077461l4.521904 1.6955643z" fill-rule="evenodd"/><path fill="#000000" fill-opacity="0.0" d="m179.46194 37.034122l-65.10236 63.370075" fill-rule="evenodd"/><path stroke="#000000" stroke-width="1.0" stroke-linejoin="round" stroke-linecap="butt" d="m179.46194 37.034122l-60.802902 59.185024" fill-rule="evenodd"/><path fill="#000000" stroke="#000000" stroke-width="1.0" stroke-linecap="butt" d="m117.506935 95.03555l-2.0997925 4.3489532l4.4039917 -1.9817657z" fill-rule="evenodd"/><path fill="#000000" fill-opacity="0.0" d="m179.46194 37.034122l-65.10236 127.37009" fill-rule="evenodd"/><path stroke="#000000" stroke-width="1.0" stroke-linejoin="round" stroke-linecap="butt" d="m179.46194 37.034122l-62.371628 122.02751" fill-rule="evenodd"/><path fill="#000000" stroke="#000000" stroke-width="1.0" stroke-linecap="butt" d="m115.61957 158.30989l-0.59464264 4.7925873l3.5361404 -3.2891083z" fill-rule="evenodd"/><path fill="#000000" fill-opacity="0.0" d="m179.46194 37.034122l-65.10236 191.37009" fill-rule="evenodd"/><path stroke="#000000" stroke-width="1.0" stroke-linejoin="round" stroke-linecap="butt" d="m179.46194 37.034122l-63.169983 185.68977" fill-rule="evenodd"/><path fill="#000000" stroke="#000000" stroke-width="1.0" stroke-linecap="butt" d="m114.72824 222.19193l0.10216522 4.8282623l3.0252838 -3.764328z" fill-rule="evenodd"/><path fill="#000000" fill-opacity="0.0" d="m179.46194 37.034122l-65.10236 255.37009" fill-rule="evenodd"/><path stroke="#000000" stroke-width="1.0" stroke-linejoin="round" stroke-linecap="butt" d="m179.46194 37.034122l-63.62017 249.55603" fill-rule="evenodd"/><path fill="#000000" stroke="#000000" stroke-width="1.0" stroke-linecap="butt" d="m114.241234 286.18213l0.47948456 4.805481l2.7215958 -3.9894104z" fill-rule="evenodd"/><path fill="#000000" fill-opacity="0.0" d="m179.46194 37.034122l-65.10236 319.3701" fill-rule="evenodd"/><path stroke="#000000" stroke-width="1.0" stroke-linejoin="round" stroke-linecap="butt" d="m179.46194 37.034122l-63.90394 313.49097" fill-rule="evenodd"/><path fill="#000000" stroke="#000000" stroke-width="1.0" stroke-linecap="butt" d="m113.93956 350.1952l0.7120209 4.7765503l2.5248795 -4.1167297z" fill-rule="evenodd"/><path fill="#cfe2f3" d="m492.21783 19.606474l0 0c0 -4.8126564 3.9014282 -8.714086 8.714111 -8.714086l83.86316 0c2.3110962 0 4.527588 0.9180889 6.161804 2.5522966c1.6342163 1.6342077 2.5523071 3.8506699 2.5523071 6.161789l0 34.855293c0 4.8126564 -3.9014282 8.714085 -8.714111 8.714085l-83.86316 0c-4.812683 0 -8.714111 -3.9014282 -8.714111 -8.714085z" fill-rule="evenodd"/><path stroke="#000000" stroke-width="1.0" stroke-linejoin="round" stroke-linecap="butt" d="m492.21783 19.606474l0 0c0 -4.8126564 3.9014282 -8.714086 8.714111 -8.714086l83.86316 0c2.3110962 0 4.527588 0.9180889 6.161804 2.5522966c1.6342163 1.6342077 2.5523071 3.8506699 2.5523071 6.161789l0 34.855293c0 4.8126564 -3.9014282 8.714085 -8.714111 8.714085l-83.86316 0c-4.812683 0 -8.714111 -3.9014282 -8.714111 -8.714085z" fill-rule="evenodd"/><path fill="#000000" fill-opacity="0.0" d="m517.9809 27.065111l49.765198 0l0 21.452864l-49.765198 0l0 -21.452864z" fill-rule="nonzero"/><path fill="#000099" d="m519.4184 43.95412l0 -13.359377l4.609375 0q1.546875 0 2.375 0.203125q1.140625 0.25 1.953125 0.953125q1.0625 0.8906269 1.578125 2.281252q0.53125 1.390625 0.53125 3.171875q0 1.515625 -0.359375 2.703125q-0.359375 1.171875 -0.921875 1.9375q-0.546875 0.765625 -1.203125 1.21875q-0.65625 0.4375 -1.59375 0.671875q-0.9375 0.21875 -2.140625 0.21875l-4.828125 0zm1.765625 -1.578125l2.859375 0q1.3125 0 2.0625 -0.234375q0.75 -0.25 1.203125 -0.703125q0.625 -0.625 0.96875 -1.6875q0.359375 -1.0625 0.359375 -2.578125q0 -2.09375 -0.6875 -3.21875q-0.6875 -1.125 -1.671875 -1.5q-0.703125 -0.28125 -2.28125 -0.28125l-2.8125 0l0 10.203125zm18.129211 -1.53125l1.6875 0.203125q-0.40625 1.484375 -1.484375 2.3125q-1.078125 0.8125 -2.765625 0.8125q-2.125 0 -3.375 -1.296875q-1.234375 -1.3125 -1.234375 -3.671875q0 -2.453125 1.25 -3.796875q1.265625 -1.34375 3.265625 -1.34375q1.9375 0 3.15625 1.328125q1.234375 1.3125 1.234375 3.703125q0 0.15625 0 0.4375l-7.21875 0q0.09375 1.59375 0.90625 2.453125q0.8125 0.84375 2.015625 0.84375q0.90625 0 1.546875 -0.46875q0.640625 -0.484375 1.015625 -1.515625zm-5.390625 -2.65625l5.40625 0q-0.109375 -1.21875 -0.625 -1.828125q-0.78125 -0.953125 -2.03125 -0.953125q-1.125 0 -1.90625 0.765625q-0.765625 0.75 -0.84375 2.015625zm9.141357 5.765625l0 -9.671875l1.46875 0l0 1.359375q0.453125 -0.71875 1.203125 -1.140625q0.765625 -0.4375 1.71875 -0.4375q1.078125 0 1.765625 0.453125q0.6875 0.4375 0.96875 1.234375q1.15625 -1.6875 2.984375 -1.6875q1.453125 0 2.21875 0.796875q0.78125 0.796875 0.78125 2.453125l0 6.640625l-1.640625 0l0 -6.09375q0 -0.984375 -0.15625 -1.40625q-0.15625 -0.4375 -0.578125 -0.703125q-0.421875 -0.265625 -0.984375 -0.265625q-1.015625 0 -1.6875 0.6875q-0.671875 0.671875 -0.671875 2.15625l0 5.625l-1.640625 0l0 -6.28125q0 -1.09375 -0.40625 -1.640625q-0.40625 -0.546875 -1.3125 -0.546875q-0.6875 0 -1.28125 0.359375q-0.59375 0.359375 -0.859375 1.0625q-0.25 0.703125 -0.25 2.03125l0 5.015625l-1.640625 0zm14.9313965 -4.84375q0 -2.6875 1.484375 -3.96875q1.25 -1.078125 3.046875 -1.078125q2.0 0 3.265625 1.3125q1.265625 1.296875 1.265625 3.609375q0 1.859375 -0.5625 2.9375q-0.5625 1.0625 -1.640625 1.65625q-1.0625 0.59375 -2.328125 0.59375q-2.03125 0 -3.28125 -1.296875q-1.25 -1.3125 -1.25 -3.765625zm1.6875 0q0 1.859375 0.796875 2.796875q0.8125 0.921875 2.046875 0.921875q1.21875 0 2.03125 -0.921875q0.8125 -0.9375 0.8125 -2.84375q0 -1.796875 -0.8125 -2.71875q-0.8125 -0.921875 -2.03125 -0.921875q-1.234375 0 -2.046875 0.921875q-0.796875 0.90625 -0.796875 2.765625z" fill-rule="nonzero"/><path fill="#010000" fill-opacity="0.0" d="m567.7461 27.065111l0 0l0 21.452864l0 0l0 -21.452864z" fill-rule="nonzero"/><path fill="#000099" d="m517.9809 45.167454l49.765198 0l0 1.6800003l-49.765198 0l0 -1.6800003z" fill-rule="nonzero"/><a xlink:href="https://www.google.com/url?q=https://github.com/vburlai/chat-design-demo/tree/master/demo&amp;sa=D&amp;ust=1593878914738000&amp;usg=AFQjCNGLn5qNXqWgwDTlnbm01aVjB45JGQ" target="_blank" rel="noreferrer"><path fill="transparent" fill-opacity="0" d="m517.9809 26.03412l49.765198 0l0 22.4l-49.765198 0l0 -22.4z" fill-rule="nonzero"/></a><path fill="#cfe2f3" d="m191.4462 191.2546l0 0c0 -20.517166 17.309296 -37.149612 38.661407 -37.149612l0 0c10.253647 0 20.087341 3.913971 27.337769 10.880875c7.2503967 6.9669037 11.323669 16.416046 11.323669 26.268738l0 0c0 20.517166 -17.309326 37.149612 -38.661438 37.149612l0 0c-21.352112 0 -38.661407 -16.632446 -38.661407 -37.149612z" fill-rule="evenodd"/><path stroke="#000000" stroke-width="1.0" stroke-linejoin="round" stroke-linecap="butt" d="m191.4462 191.2546l0 0c0 -20.517166 17.309296 -37.149612 38.661407 -37.149612l0 0c10.253647 0 20.087341 3.913971 27.337769 10.880875c7.2503967 6.9669037 11.323669 16.416046 11.323669 26.268738l0 0c0 20.517166 -17.309326 37.149612 -38.661438 37.149612l0 0c-21.352112 0 -38.661407 -16.632446 -38.661407 -37.149612z" fill-rule="evenodd"/><path fill="#000000" fill-opacity="0.0" d="m218.69797 181.28558l22.81929 0l0 21.452866l-22.81929 0l0 -21.452866z" fill-rule="nonzero"/><path fill="#000099" d="m220.05734 198.17459l0 -13.359375l1.78125 0l0 11.78125l6.5625 0l0 1.578125l-8.34375 0zm10.375717 0l0 -13.359375l5.015625 0q1.53125 0 2.453125 0.40625q0.921875 0.40625 1.4375 1.25q0.53125 0.84375 0.53125 1.765625q0 0.859375 -0.46875 1.625q-0.453125 0.75 -1.390625 1.203125q1.203125 0.359375 1.859375 1.21875q0.65625 0.859375 0.65625 2.015625q0 0.9375 -0.40625 1.75q-0.390625 0.796875 -0.984375 1.234375q-0.578125 0.4375 -1.453125 0.671875q-0.875 0.21875 -2.15625 0.21875l-5.09375 0zm1.78125 -7.75l2.875 0q1.1875 0 1.6875 -0.140625q0.671875 -0.203125 1.015625 -0.671875q0.34375 -0.46875 0.34375 -1.171875q0 -0.65625 -0.328125 -1.15625q-0.3125 -0.515625 -0.90625 -0.703125q-0.59375 -0.1875 -2.03125 -0.1875l-2.65625 0l0 4.03125zm0 6.171875l3.3125 0q0.859375 0 1.203125 -0.0625q0.609375 -0.109375 1.015625 -0.359375q0.421875 -0.265625 0.6875 -0.75q0.265625 -0.484375 0.265625 -1.125q0 -0.75 -0.390625 -1.296875q-0.375 -0.546875 -1.0625 -0.765625q-0.671875 -0.234375 -1.953125 -0.234375l-3.078125 0l0 4.59375z" fill-rule="nonzero"/><path fill="#010000" fill-opacity="0.0" d="m241.51726 181.28558l0 0l0 21.452866l0 0l0 -21.452866z" fill-rule="nonzero"/><path fill="#000099" d="m218.69797 199.38792l22.81929 0l0 1.6799927l-22.81929 0l0 -1.6799927z" fill-rule="nonzero"/><a xlink:href="https://www.google.com/url?q=https://github.com/vburlai/chat-design-demo/tree/master/load-balancer&amp;sa=D&amp;ust=1593878914741000&amp;usg=AFQjCNFYjGn3wekGAttqQWZS_fgK21-7oA" target="_blank" rel="noreferrer"><path fill="transparent" fill-opacity="0" d="m218.69797 180.2546l22.81929 0l0 22.399994l-22.81929 0l0 -22.399994z" fill-rule="nonzero"/></a><path fill="#000000" fill-opacity="0.0" d="m114.362206 36.4147l88.40945 128.56693" fill-rule="evenodd"/><path stroke="#000000" stroke-width="1.0" stroke-linejoin="round" stroke-linecap="butt" d="m114.362206 36.4147l85.00976 123.62303" fill-rule="evenodd"/><path fill="#000000" stroke="#000000" stroke-width="1.0" stroke-linecap="butt" d="m198.01097 160.97362l3.9323425 2.803421l-1.2103424 -4.6752014z" fill-rule="evenodd"/><path fill="#000000" fill-opacity="0.0" d="m114.362206 100.414696l88.40945 64.56693" fill-rule="evenodd"/><path stroke="#000000" stroke-width="1.0" stroke-linejoin="round" stroke-linecap="butt" d="m114.362206 100.414696l83.564064 61.02825" fill-rule="evenodd"/><path fill="#000000" stroke="#000000" stroke-width="1.0" stroke-linecap="butt" d="m196.9521 162.77684l4.638977 1.3425903l-2.6906586 -4.0103607z" fill-rule="evenodd"/><path fill="#000000" fill-opacity="0.0" d="m114.362206 164.4147l77.07087 26.83464" fill-rule="evenodd"/><path stroke="#000000" stroke-width="1.0" stroke-linejoin="round" stroke-linecap="butt" d="m114.362206 164.4147l71.4045 24.861725" fill-rule="evenodd"/><path fill="#000000" stroke="#000000" stroke-width="1.0" stroke-linecap="butt" d="m185.22359 190.8363l4.8288727 -0.06765747l-3.7426147 -3.0521088z" fill-rule="evenodd"/><path fill="#000000" fill-opacity="0.0" d="m114.362206 228.4147l77.07087 -37.16536" fill-rule="evenodd"/><path stroke="#000000" stroke-width="1.0" stroke-linejoin="round" stroke-linecap="butt" d="m114.362206 228.4147l71.66642 -34.559204" fill-rule="evenodd"/><path fill="#000000" stroke="#000000" stroke-width="1.0" stroke-linecap="butt" d="m186.74608 195.34328l3.3701935 -3.4589386l-4.805084 0.48336792z" fill-rule="evenodd"/><path fill="#000000" fill-opacity="0.0" d="m114.362206 292.4147l88.40945 -74.897644" fill-rule="evenodd"/><path stroke="#000000" stroke-width="1.0" stroke-linejoin="round" stroke-linecap="butt" d="m114.362206 292.4147l83.83143 -71.01929" fill-rule="evenodd"/><path fill="#000000" stroke="#000000" stroke-width="1.0" stroke-linecap="butt" d="m199.26129 222.6557l2.394928 -4.19368l-4.530258 1.673111z" fill-rule="evenodd"/><path fill="#000000" fill-opacity="0.0" d="m114.362206 356.4147l88.40945 -138.89764" fill-rule="evenodd"/><path stroke="#000000" stroke-width="1.0" stroke-linejoin="round" stroke-linecap="butt" d="m114.362206 356.4147l85.18769 -133.836" fill-rule="evenodd"/><path fill="#000000" stroke="#000000" stroke-width="1.0" stroke-linecap="butt" d="m200.9433 223.46562l1.0433655 -4.7152863l-3.8302002 2.941452z" fill-rule="evenodd"/><path fill="#cfe2f3" d="m325.54016 115.6667l0 0c0 -4.81266 3.9014282 -8.714088 8.714081 -8.714088l130.88678 0c2.3111267 0 4.527588 0.9180908 6.161804 2.5522995c1.6342163 1.6342087 2.5523071 3.8506699 2.5523071 6.161789l0 34.8553c0 4.8126526 -3.9014587 8.714081 -8.714111 8.714081l-130.88678 0c-4.8126526 0 -8.714081 -3.9014282 -8.714081 -8.714081z" fill-rule="evenodd"/><path stroke="#000000" stroke-width="1.0" stroke-linejoin="round" stroke-linecap="butt" d="m325.54016 115.6667l0 0c0 -4.81266 3.9014282 -8.714088 8.714081 -8.714088l130.88678 0c2.3111267 0 4.527588 0.9180908 6.161804 2.5522995c1.6342163 1.6342087 2.5523071 3.8506699 2.5523071 6.161789l0 34.8553c0 4.8126526 -3.9014587 8.714081 -8.714111 8.714081l-130.88678 0c-4.8126526 0 -8.714081 -3.9014282 -8.714081 -8.714081z" fill-rule="evenodd"/><path fill="#000000" fill-opacity="0.0" d="m345.25473 123.125336l93.32681 0l0 21.452866l-93.32681 0l0 -21.452866z" fill-rule="nonzero"/><path fill="#000099" d="m345.22348 140.01434l5.125 -13.359375l1.90625 0l5.46875 13.359375l-2.015625 0l-1.546875 -4.046875l-5.59375 0l-1.46875 4.046875l-1.875 0zm3.859375 -5.484375l4.53125 0l-1.40625 -3.703125q-0.625 -1.6875 -0.9375 -2.765625q-0.265625 1.28125 -0.71875 2.546875l-1.46875 3.921875zm9.849823 9.1875l0 -13.375l1.484375 0l0 1.25q0.53125 -0.734375 1.1875 -1.09375q0.671875 -0.375 1.625 -0.375q1.234375 0 2.171875 0.640625q0.953125 0.625 1.4375 1.796875q0.484375 1.15625 0.484375 2.546875q0 1.484375 -0.53125 2.671875q-0.53125 1.1875 -1.546875 1.828125q-1.015625 0.625 -2.140625 0.625q-0.8125 0 -1.46875 -0.34375q-0.65625 -0.34375 -1.0625 -0.875l0 4.703125l-1.640625 0zm1.484375 -8.484375q0 1.859375 0.75 2.765625q0.765625 0.890625 1.828125 0.890625q1.09375 0 1.875 -0.921875q0.78125 -0.9375 0.78125 -2.875q0 -1.84375 -0.765625 -2.765625q-0.75 -0.921875 -1.8125 -0.921875q-1.046875 0 -1.859375 0.984375q-0.796875 0.96875 -0.796875 2.84375zm8.891327 8.484375l0 -13.375l1.484375 0l0 1.25q0.53125 -0.734375 1.1875 -1.09375q0.671875 -0.375 1.625 -0.375q1.234375 0 2.171875 0.640625q0.953125 0.625 1.4375 1.796875q0.484375 1.15625 0.484375 2.546875q0 1.484375 -0.53125 2.671875q-0.53125 1.1875 -1.546875 1.828125q-1.015625 0.625 -2.140625 0.625q-0.8125 0 -1.46875 -0.34375q-0.65625 -0.34375 -1.0625 -0.875l0 4.703125l-1.640625 0zm1.484375 -8.484375q0 1.859375 0.75 2.765625q0.765625 0.890625 1.828125 0.890625q1.09375 0 1.875 -0.921875q0.78125 -0.9375 0.78125 -2.875q0 -1.84375 -0.765625 -2.765625q-0.75 -0.921875 -1.8125 -0.921875q-1.046875 0 -1.859375 0.984375q-0.796875 0.96875 -0.796875 2.84375zm13.684021 0.484375l1.65625 -0.140625q0.125 1.0 0.546875 1.640625q0.4375 0.640625 1.34375 1.046875q0.921875 0.390625 2.0625 0.390625q1.0 0 1.78125 -0.296875q0.7812805 -0.296875 1.1562805 -0.8125q0.375 -0.53125 0.375 -1.15625q0 -0.625 -0.375 -1.09375q-0.359375 -0.46875 -1.1875305 -0.796875q-0.546875 -0.203125 -2.390625 -0.640625q-1.828125 -0.453125 -2.5625 -0.84375q-0.96875 -0.5 -1.4375 -1.234375q-0.46875 -0.75 -0.46875 -1.671875q0 -1.0 0.578125 -1.875q0.578125 -0.890625 1.671875 -1.34375q1.109375 -0.453125 2.453125 -0.453125q1.484375 0 2.6094055 0.484375q1.140625 0.46875 1.75 1.40625q0.609375 0.921875 0.65625 2.09375l-1.6875 0.125q-0.140625 -1.265625 -0.9375305 -1.90625q-0.78125 -0.65625 -2.3125 -0.65625q-1.609375 0 -2.34375 0.59375q-0.734375 0.59375 -0.734375 1.421875q0 0.71875 0.53125 1.171875q0.5 0.46875 2.65625 0.96875q2.15625 0.484375 2.9531555 0.84375q1.171875 0.53125 1.71875 1.359375q0.5625 0.828125 0.5625 1.90625q0 1.0625 -0.609375 2.015625q-0.609375 0.9375 -1.75 1.46875q-1.1406555 0.515625 -2.5781555 0.515625q-1.8125 0 -3.046875 -0.53125q-1.21875 -0.53125 -1.921875 -1.59375q-0.6875 -1.0625 -0.71875 -2.40625zm19.459229 1.1875l1.6875 0.203125q-0.40625 1.484375 -1.484375 2.3125q-1.078125 0.8125 -2.765625 0.8125q-2.125 0 -3.375 -1.296875q-1.234375 -1.3125 -1.234375 -3.671875q0 -2.453125 1.25 -3.796875q1.265625 -1.34375 3.265625 -1.34375q1.9375 0 3.15625 1.328125q1.234375 1.3125 1.234375 3.703125q0 0.15625 0 0.4375l-7.21875 0q0.09375 1.59375 0.90625 2.453125q0.8125 0.84375 2.015625 0.84375q0.90625 0 1.546875 -0.46875q0.640625 -0.484375 1.015625 -1.515625zm-5.390625 -2.65625l5.40625 0q-0.109375 -1.21875 -0.625 -1.828125q-0.78125 -0.953125 -2.03125 -0.953125q-1.125 0 -1.90625 0.765625q-0.765625 0.75 -0.84375 2.015625zm9.125702 5.765625l0 -9.671875l1.46875 0l0 1.46875q0.5625 -1.03125 1.03125 -1.359375q0.484375 -0.328125 1.0625 -0.328125q0.828125 0 1.6875 0.53125l-0.5625 1.515625q-0.609375 -0.359375 -1.203125 -0.359375q-0.546875 0 -0.96875 0.328125q-0.421875 0.328125 -0.609375 0.890625q-0.28125 0.875 -0.28125 1.921875l0 5.0625l-1.625 0zm8.915802 0l-3.6875 -9.671875l1.734375 0l2.078125 5.796875q0.328125 0.9375 0.625 1.9375q0.203125 -0.765625 0.609375 -1.828125l2.140625 -5.90625l1.6875 0l-3.65625 9.671875l-1.53125 0zm13.265625 -3.109375l1.6875 0.203125q-0.40625 1.484375 -1.484375 2.3125q-1.078125 0.8125 -2.765625 0.8125q-2.125 0 -3.375 -1.296875q-1.234375 -1.3125 -1.234375 -3.671875q0 -2.453125 1.25 -3.796875q1.265625 -1.34375 3.265625 -1.34375q1.9375 0 3.15625 1.328125q1.234375 1.3125 1.234375 3.703125q0 0.15625 0 0.4375l-7.21875 0q0.09375 1.59375 0.90625 2.453125q0.8125 0.84375 2.015625 0.84375q0.90625 0 1.546875 -0.46875q0.640625 -0.484375 1.015625 -1.515625zm-5.390625 -2.65625l5.40625 0q-0.109375 -1.21875 -0.625 -1.828125q-0.78125 -0.953125 -2.03125 -0.953125q-1.125 0 -1.90625 0.765625q-0.765625 0.75 -0.84375 2.015625zm9.125732 5.765625l0 -9.671875l1.46875 0l0 1.46875q0.5625 -1.03125 1.03125 -1.359375q0.484375 -0.328125 1.0625 -0.328125q0.828125 0 1.6875 0.53125l-0.5625 1.515625q-0.609375 -0.359375 -1.203125 -0.359375q-0.546875 0 -0.96875 0.328125q-0.421875 0.328125 -0.609375 0.890625q-0.28125 0.875 -0.28125 1.921875l0 5.0625l-1.625 0z" fill-rule="nonzero"/><path fill="#000000" d="m450.71796 140.01434l-1.640625 0l0 -10.453125q-0.59375 0.5625 -1.5625 1.140625q-0.953125 0.5625 -1.71875 0.84375l0 -1.59375q1.375 -0.640625 2.40625 -1.5625q1.03125 -0.921875 1.453125 -1.78125l1.0625 0l0 13.40625z" fill-rule="nonzero"/><path fill="#000099" d="m345.25473 141.22768l93.32678 0l0 1.6800079l-93.32678 0l0 -1.6800079z" fill-rule="nonzero"/><a xlink:href="https://www.google.com/url?q=https://github.com/vburlai/chat-design-demo/tree/master/app-server&amp;sa=D&amp;ust=1593878914744000&amp;usg=AFQjCNG5vOryjemwuJtQ23F0pHT8CD_Law" target="_blank" rel="noreferrer"><path fill="transparent" fill-opacity="0" d="m345.25473 122.094345l93.32678 0l0 22.399994l-93.32678 0l0 -22.399994z" fill-rule="nonzero"/></a><path fill="#cfe2f3" d="m325.54016 233.11299l0 0c0 -4.8126526 3.9014282 -8.714081 8.714081 -8.714081l130.88678 0c2.3111267 0 4.527588 0.9180908 6.161804 2.5522919c1.6342163 1.6342163 2.5523071 3.8506775 2.5523071 6.161789l0 34.8553c0 4.8126526 -3.9014587 8.714081 -8.714111 8.714081l-130.88678 0c-4.8126526 0 -8.714081 -3.9014282 -8.714081 -8.714081z" fill-rule="evenodd"/><path stroke="#000000" stroke-width="1.0" stroke-linejoin="round" stroke-linecap="butt" d="m325.54016 233.11299l0 0c0 -4.8126526 3.9014282 -8.714081 8.714081 -8.714081l130.88678 0c2.3111267 0 4.527588 0.9180908 6.161804 2.5522919c1.6342163 1.6342163 2.5523071 3.8506775 2.5523071 6.161789l0 34.8553c0 4.8126526 -3.9014587 8.714081 -8.714111 8.714081l-130.88678 0c-4.8126526 0 -8.714081 -3.9014282 -8.714081 -8.714081z" fill-rule="evenodd"/><path fill="#000000" fill-opacity="0.0" d="m345.25473 240.57164l93.32681 0l0 21.452866l-93.32681 0l0 -21.452866z" fill-rule="nonzero"/><path fill="#000099" d="m345.22348 257.46063l5.125 -13.35936l1.90625 0l5.46875 13.35936l-2.015625 0l-1.546875 -4.0468597l-5.59375 0l-1.46875 4.0468597l-1.875 0zm3.859375 -5.4843597l4.53125 0l-1.40625 -3.703125q-0.625 -1.6875 -0.9375 -2.765625q-0.265625 1.28125 -0.71875 2.546875l-1.46875 3.921875zm9.849823 9.187485l0 -13.374985l1.484375 0l0 1.25q0.53125 -0.734375 1.1875 -1.09375q0.671875 -0.375 1.625 -0.375q1.234375 0 2.171875 0.640625q0.953125 0.625 1.4375 1.796875q0.484375 1.15625 0.484375 2.546875q0 1.484375 -0.53125 2.671875q-0.53125 1.1874847 -1.546875 1.8281097q-1.015625 0.625 -2.140625 0.625q-0.8125 0 -1.46875 -0.34375q-0.65625 -0.34375 -1.0625 -0.875l0 4.703125l-1.640625 0zm1.484375 -8.48436q0 1.859375 0.75 2.765625q0.765625 0.89060974 1.828125 0.89060974q1.09375 0 1.875 -0.92185974q0.78125 -0.9375 0.78125 -2.875q0 -1.84375 -0.765625 -2.765625q-0.75 -0.921875 -1.8125 -0.921875q-1.046875 0 -1.859375 0.984375q-0.796875 0.96875 -0.796875 2.84375zm8.891327 8.48436l0 -13.374985l1.484375 0l0 1.25q0.53125 -0.734375 1.1875 -1.09375q0.671875 -0.375 1.625 -0.375q1.234375 0 2.171875 0.640625q0.953125 0.625 1.4375 1.796875q0.484375 1.15625 0.484375 2.546875q0 1.484375 -0.53125 2.671875q-0.53125 1.1874847 -1.546875 1.8281097q-1.015625 0.625 -2.140625 0.625q-0.8125 0 -1.46875 -0.34375q-0.65625 -0.34375 -1.0625 -0.875l0 4.703125l-1.640625 0zm1.484375 -8.48436q0 1.859375 0.75 2.765625q0.765625 0.89060974 1.828125 0.89060974q1.09375 0 1.875 -0.92185974q0.78125 -0.9375 0.78125 -2.875q0 -1.84375 -0.765625 -2.765625q-0.75 -0.921875 -1.8125 -0.921875q-1.046875 0 -1.859375 0.984375q-0.796875 0.96875 -0.796875 2.84375zm13.684021 0.484375l1.65625 -0.140625q0.125 1.0 0.546875 1.640625q0.4375 0.640625 1.34375 1.046875q0.921875 0.39060974 2.0625 0.39060974q1.0 0 1.78125 -0.29685974q0.7812805 -0.296875 1.1562805 -0.8125q0.375 -0.53125 0.375 -1.15625q0 -0.625 -0.375 -1.09375q-0.359375 -0.46875 -1.1875305 -0.796875q-0.546875 -0.203125 -2.390625 -0.640625q-1.828125 -0.453125 -2.5625 -0.84375q-0.96875 -0.5 -1.4375 -1.234375q-0.46875 -0.75 -0.46875 -1.671875q0 -1.0 0.578125 -1.875q0.578125 -0.890625 1.671875 -1.34375q1.109375 -0.453125 2.453125 -0.453125q1.484375 0 2.6094055 0.484375q1.140625 0.46875 1.75 1.40625q0.609375 0.921875 0.65625 2.09375l-1.6875 0.125q-0.140625 -1.265625 -0.9375305 -1.90625q-0.78125 -0.65625 -2.3125 -0.65625q-1.609375 0 -2.34375 0.59375q-0.734375 0.59375 -0.734375 1.421875q0 0.71875 0.53125 1.171875q0.5 0.46875 2.65625 0.96875q2.15625 0.484375 2.9531555 0.84375q1.171875 0.53125 1.71875 1.359375q0.5625 0.828125 0.5625 1.90625q0 1.0625 -0.609375 2.015625q-0.609375 0.93748474 -1.75 1.4687347q-1.1406555 0.515625 -2.5781555 0.515625q-1.8125 0 -3.046875 -0.53125q-1.21875 -0.53125 -1.921875 -1.5937347q-0.6875 -1.0625 -0.71875 -2.40625zm19.459229 1.1875l1.6875 0.203125q-0.40625 1.4843597 -1.484375 2.3124847q-1.078125 0.8125 -2.765625 0.8125q-2.125 0 -3.375 -1.296875q-1.234375 -1.3124847 -1.234375 -3.6718597q0 -2.453125 1.25 -3.796875q1.265625 -1.34375 3.265625 -1.34375q1.9375 0 3.15625 1.328125q1.234375 1.3125 1.234375 3.703125q0 0.15625 0 0.4375l-7.21875 0q0.09375 1.59375 0.90625 2.453125q0.8125 0.84373474 2.015625 0.84373474q0.90625 0 1.546875 -0.46873474q0.640625 -0.484375 1.015625 -1.515625zm-5.390625 -2.65625l5.40625 0q-0.109375 -1.21875 -0.625 -1.828125q-0.78125 -0.953125 -2.03125 -0.953125q-1.125 0 -1.90625 0.765625q-0.765625 0.75 -0.84375 2.015625zm9.125702 5.7656097l0 -9.67186l1.46875 0l0 1.46875q0.5625 -1.03125 1.03125 -1.359375q0.484375 -0.328125 1.0625 -0.328125q0.828125 0 1.6875 0.53125l-0.5625 1.515625q-0.609375 -0.359375 -1.203125 -0.359375q-0.546875 0 -0.96875 0.328125q-0.421875 0.328125 -0.609375 0.890625q-0.28125 0.875 -0.28125 1.921875l0 5.0624847l-1.625 0zm8.915802 0l-3.6875 -9.67186l1.734375 0l2.078125 5.796875q0.328125 0.9375 0.625 1.9375q0.203125 -0.765625 0.609375 -1.828125l2.140625 -5.90625l1.6875 0l-3.65625 9.67186l-1.53125 0zm13.265625 -3.1093597l1.6875 0.203125q-0.40625 1.4843597 -1.484375 2.3124847q-1.078125 0.8125 -2.765625 0.8125q-2.125 0 -3.375 -1.296875q-1.234375 -1.3124847 -1.234375 -3.6718597q0 -2.453125 1.25 -3.796875q1.265625 -1.34375 3.265625 -1.34375q1.9375 0 3.15625 1.328125q1.234375 1.3125 1.234375 3.703125q0 0.15625 0 0.4375l-7.21875 0q0.09375 1.59375 0.90625 2.453125q0.8125 0.84373474 2.015625 0.84373474q0.90625 0 1.546875 -0.46873474q0.640625 -0.484375 1.015625 -1.515625zm-5.390625 -2.65625l5.40625 0q-0.109375 -1.21875 -0.625 -1.828125q-0.78125 -0.953125 -2.03125 -0.953125q-1.125 0 -1.90625 0.765625q-0.765625 0.75 -0.84375 2.015625zm9.125732 5.7656097l0 -9.67186l1.46875 0l0 1.46875q0.5625 -1.03125 1.03125 -1.359375q0.484375 -0.328125 1.0625 -0.328125q0.828125 0 1.6875 0.53125l-0.5625 1.515625q-0.609375 -0.359375 -1.203125 -0.359375q-0.546875 0 -0.96875 0.328125q-0.421875 0.328125 -0.609375 0.890625q-0.28125 0.875 -0.28125 1.921875l0 5.0624847l-1.625 0z" fill-rule="nonzero"/><path fill="#000000" d="m453.15546 255.88252l0 1.5781097l-8.828125 0q-0.015625 -0.59375 0.1875 -1.140625q0.34375 -0.90623474 1.078125 -1.7812347q0.75 -0.875 2.15625 -2.015625q2.171875 -1.78125 2.9375 -2.828125q0.765625 -1.046875 0.765625 -1.96875q0 -0.984375 -0.703125 -1.640625q-0.6875 -0.671875 -1.8125 -0.671875q-1.1875 0 -1.90625 0.71875q-0.703125 0.703125 -0.703125 1.953125l-1.6875 -0.171875q0.171875 -1.890625 1.296875 -2.875q1.140625 -0.984375 3.03125 -0.984375q1.921875 0 3.046875 1.0625q1.125 1.0625 1.125 2.640625q0 0.796875 -0.328125 1.578125q-0.328125 0.78125 -1.09375 1.640625q-0.75 0.84375 -2.53125 2.34375q-1.46875 1.234375 -1.890625 1.6875q-0.421875 0.4375 -0.6875 0.875l6.546875 0z" fill-rule="nonzero"/><path fill="#000099" d="m345.25473 258.67398l93.32678 0l0 1.6799927l-93.32678 0l0 -1.6799927z" fill-rule="nonzero"/><a xlink:href="https://www.google.com/url?q=https://github.com/vburlai/chat-design-demo/tree/master/app-server&amp;sa=D&amp;ust=1593878914747000&amp;usg=AFQjCNHAfLKkCqPRLYqSjLfk0XlFeSKXbw" target="_blank" rel="noreferrer"><path fill="transparent" fill-opacity="0" d="m345.25473 239.54065l93.32678 0l0 22.399994l-93.32678 0l0 -22.399994z" fill-rule="nonzero"/></a><path fill="#000000" fill-opacity="0.0" d="m268.76904 191.2546l56.75589 -58.173233" fill-rule="evenodd"/><path stroke="#000000" stroke-width="1.0" stroke-linejoin="round" stroke-linecap="butt" d="m268.76904 191.2546l52.565887 -53.878586" fill-rule="evenodd"/><path fill="#000000" stroke="#000000" stroke-width="1.0" stroke-linecap="butt" d="m322.5172 138.52946l1.9868164 -4.401703l-4.351349 2.0947723z" fill-rule="evenodd"/><path fill="#000000" fill-opacity="0.0" d="m268.76904 191.2546l56.75589 59.27559" fill-rule="evenodd"/><path stroke="#000000" stroke-width="1.0" stroke-linejoin="round" stroke-linecap="butt" d="m268.76904 191.2546l52.606354 54.94185" fill-rule="evenodd"/><path fill="#000000" stroke="#000000" stroke-width="1.0" stroke-linecap="butt" d="m320.18237 247.33876l4.3315125 2.135498l-1.9454346 -4.4201508z" fill-rule="evenodd"/><path fill="#cfe2f3" d="m504.3281 196.71916l0 0c0 -20.682419 17.2529 -37.448822 38.53543 -37.448822l0 0c10.220215 0 20.02185 3.9454956 27.248657 10.968506c7.2268066 7.0230103 11.286743 16.548264 11.286743 26.480316l0 0c0 20.682404 -17.252869 37.448822 -38.5354 37.448822l0 0c-21.282532 0 -38.53543 -16.766418 -38.53543 -37.448822z" fill-rule="evenodd"/><path stroke="#000000" stroke-width="1.0" stroke-linejoin="round" stroke-linecap="butt" d="m504.3281 196.71916l0 0c0 -20.682419 17.2529 -37.448822 38.53543 -37.448822l0 0c10.220215 0 20.02185 3.9454956 27.248657 10.968506c7.2268066 7.0230103 11.286743 16.548264 11.286743 26.480316l0 0c0 20.682404 -17.252869 37.448822 -38.5354 37.448822l0 0c-21.282532 0 -38.53543 -16.766418 -38.53543 -37.448822z" fill-rule="evenodd"/><path fill="#000000" fill-opacity="0.0" d="m527.8374 186.75015l30.052246 0l0 21.452866l-30.052246 0l0 -21.452866z" fill-rule="nonzero"/><path fill="#000099" d="m529.228 203.63916l0 -13.359375l2.65625 0l3.15625 9.453125q0.4375 1.328125 0.640625 1.984375q0.234375 -0.734375 0.703125 -2.140625l3.203125 -9.296875l2.375 0l0 13.359375l-1.703125 0l0 -11.171875l-3.875 11.171875l-1.59375 0l-3.859375 -11.375l0 11.375l-1.703125 0zm25.712646 -1.4375q1.234375 0.859375 2.265625 1.25l-0.515625 1.21875q-1.4375 -0.515625 -2.875 -1.625q-1.484375 0.828125 -3.28125 0.828125q-1.8125 0 -3.296814 -0.875q-1.46875 -0.875 -2.265625 -2.453125q-0.796875 -1.59375 -0.796875 -3.578125q0 -1.984375 0.796875 -3.59375q0.8125 -1.625 2.28125 -2.46875q1.484314 -0.859375 3.328064 -0.859375q1.84375 0 3.328125 0.890625q1.484375 0.875 2.265625 2.453125q0.78125 1.578125 0.78125 3.5625q0 1.65625 -0.5 2.96875q-0.5 1.3125 -1.515625 2.28125zm-3.890625 -2.25q1.53125 0.421875 2.515625 1.28125q1.5625 -1.421875 1.5625 -4.28125q0 -1.625 -0.546875 -2.828125q-0.546875 -1.21875 -1.609375 -1.875q-1.0625 -0.671875 -2.390625 -0.671875q-1.96875 0 -3.281189 1.359375q-1.296875 1.34375 -1.296875 4.03125q0 2.59375 1.28125 4.0q1.296814 1.390625 3.296814 1.390625q0.953125 0 1.78125 -0.359375q-0.828125 -0.53125 -1.75 -0.765625l0.4375 -1.28125z" fill-rule="nonzero"/><path fill="#010000" fill-opacity="0.0" d="m557.88965 186.75015l0 0l0 21.452866l0 0l0 -21.452866z" fill-rule="nonzero"/><path fill="#000099" d="m527.8374 204.8525l30.052246 0l0 1.6800079l-30.052246 0l0 -1.6800079z" fill-rule="nonzero"/><a xlink:href="https://www.google.com/url?q=https://github.com/vburlai/chat-design-demo/tree/master/message-queue&amp;sa=D&amp;ust=1593878914750000&amp;usg=AFQjCNFSlFY8vnNPjOzknB2dNAPx4CBcgg" target="_blank" rel="noreferrer"><path fill="transparent" fill-opacity="0" d="m527.8374 185.71916l30.052246 0l0 22.399994l-30.052246 0l0 -22.399994z" fill-rule="nonzero"/></a><path fill="#000000" fill-opacity="0.0" d="m473.85513 133.09435l41.763763 37.133865" fill-rule="evenodd"/><path stroke="#000000" stroke-width="1.0" stroke-linejoin="round" stroke-linecap="butt" d="m478.339 137.08116l32.79602 29.160233" fill-rule="evenodd"/><path fill="#000000" stroke="#000000" stroke-width="1.0" stroke-linecap="butt" d="m479.43652 135.84679l-4.488922 -1.7810516l2.2938843 4.2497864z" fill-rule="evenodd"/><path fill="#000000" stroke="#000000" stroke-width="1.0" stroke-linecap="butt" d="m510.03748 167.47575l4.4888916 1.7810669l-2.2938232 -4.2498016z" fill-rule="evenodd"/><path fill="#000000" fill-opacity="0.0" d="m473.85513 250.54065l41.763763 -27.338593" fill-rule="evenodd"/><path stroke="#000000" stroke-width="1.0" stroke-linejoin="round" stroke-linecap="butt" d="m478.8752 247.25449l31.723572 -20.766281" fill-rule="evenodd"/><path fill="#000000" stroke="#000000" stroke-width="1.0" stroke-linecap="butt" d="m477.97055 245.87253l-2.8923035 3.867447l4.701599 -1.1035156z" fill-rule="evenodd"/><path fill="#000000" stroke="#000000" stroke-width="1.0" stroke-linecap="butt" d="m511.50345 227.87018l2.8923035 -3.867447l-4.701599 1.1035004z" fill-rule="evenodd"/><path fill="#000000" fill-opacity="0.0" d="m542.8635 63.175854l0 96.09448" fill-rule="evenodd"/><path stroke="#000000" stroke-width="1.0" stroke-linejoin="round" stroke-linecap="butt" d="m542.8635 69.17585l0 84.09449" fill-rule="evenodd"/><path fill="#000000" stroke="#000000" stroke-width="1.0" stroke-linecap="butt" d="m544.51526 69.17585l-1.6517334 -4.5380936l-1.6517334 4.5380936z" fill-rule="evenodd"/><path fill="#000000" stroke="#000000" stroke-width="1.0" stroke-linecap="butt" d="m541.2118 153.27034l1.6517334 4.538101l1.6517334 -4.538101z" fill-rule="evenodd"/><path fill="#cfe2f3" d="m501.00592 312.2285l0 0c0 -4.8126526 3.9014282 -8.714081 8.714081 -8.714081l66.28836 0c2.3110962 0 4.527588 0.9180908 6.161804 2.5522766c1.6342163 1.6342163 2.5523071 3.8506775 2.5523071 6.161804l0 34.855286c0 4.8126526 -3.9014282 8.714081 -8.714111 8.714081l-66.28836 0c-4.8126526 0 -8.714081 -3.9014282 -8.714081 -8.714081z" fill-rule="evenodd"/><path stroke="#000000" stroke-width="1.0" stroke-linejoin="round" stroke-linecap="butt" d="m501.00592 312.2285l0 0c0 -4.8126526 3.9014282 -8.714081 8.714081 -8.714081l66.28836 0c2.3110962 0 4.527588 0.9180908 6.161804 2.5522766c1.6342163 1.6342163 2.5523071 3.8506775 2.5523071 6.161804l0 34.855286c0 4.8126526 -3.9014282 8.714081 -8.714111 8.714081l-66.28836 0c-4.8126526 0 -8.714081 -3.9014282 -8.714081 -8.714081z" fill-rule="evenodd"/><path fill="#000000" fill-opacity="0.0" d="m515.9001 319.68713l53.928223 0l0 21.45285l-53.928223 0l0 -21.45285z" fill-rule="nonzero"/><path fill="#000099" d="m526.86884 331.88864l1.765625 0.453125q-0.5625 2.171875 -2.0 3.328125q-1.4375 1.140625 -3.53125 1.140625q-2.15625 0 -3.515625 -0.875q-1.34375 -0.890625 -2.0625 -2.546875q-0.703125 -1.671875 -0.703125 -3.59375q0 -2.078125 0.796875 -3.625q0.796875 -1.5625 2.265625 -2.359375q1.484375 -0.8125 3.25 -0.8125q2.0 0 3.359375 1.015625q1.375 1.015625 1.90625 2.875l-1.734375 0.40625q-0.46875 -1.453125 -1.359375 -2.109375q-0.875 -0.671875 -2.203125 -0.671875q-1.546875 0 -2.578125 0.734375q-1.03125 0.734375 -1.453125 1.984375q-0.421875 1.234375 -0.421875 2.5625q0 1.703125 0.5 2.96875q0.5 1.265625 1.546875 1.90625q1.046875 0.625 2.265625 0.625q1.484375 0 2.515625 -0.859375q1.03125 -0.859375 1.390625 -2.546875zm10.051086 3.5q-0.921875 0.765625 -1.765625 1.09375q-0.828125 0.3125 -1.796875 0.3125q-1.59375 0 -2.453125 -0.78125q-0.859375 -0.78125 -0.859375 -1.984375q0 -0.71875 0.328125 -1.296875q0.328125 -0.59375 0.84375 -0.9375q0.53125 -0.359375 1.1875 -0.546875q0.46875 -0.125 1.453125 -0.25q1.984375 -0.234375 2.921875 -0.5625q0.015625 -0.34375 0.015625 -0.421875q0 -1.0 -0.46875 -1.421875q-0.625 -0.546875 -1.875 -0.546875q-1.15625 0 -1.703125 0.40625q-0.546875 0.40625 -0.8125 1.421875l-1.609375 -0.21875q0.21875 -1.015625 0.71875 -1.640625q0.5 -0.640625 1.453125 -0.984375q0.953125 -0.34375 2.1875 -0.34375q1.25 0 2.015625 0.296875q0.78125 0.28125 1.140625 0.734375q0.375 0.4375 0.515625 1.109375q0.078125 0.421875 0.078125 1.515625l0 2.1875q0 2.28125 0.109375 2.890625q0.109375 0.59375 0.40625 1.15625l-1.703125 0q-0.265625 -0.515625 -0.328125 -1.1875zm-0.140625 -3.671875q-0.890625 0.375 -2.671875 0.625q-1.015625 0.140625 -1.4375 0.328125q-0.421875 0.1875 -0.65625 0.53125q-0.21875 0.34375 -0.21875 0.78125q0 0.65625 0.5 1.09375q0.5 0.4375 1.453125 0.4375q0.9375 0 1.671875 -0.40625q0.75 -0.421875 1.09375 -1.140625q0.265625 -0.5625 0.265625 -1.640625l0 -0.609375zm10.516296 1.3125l1.609375 0.21875q-0.265625 1.65625 -1.359375 2.609375q-1.078125 0.9375 -2.671875 0.9375q-1.984375 0 -3.1875 -1.296875q-1.203125 -1.296875 -1.203125 -3.71875q0 -1.578125 0.515625 -2.75q0.515625 -1.171875 1.578125 -1.75q1.0625 -0.59375 2.3125 -0.59375q1.578125 0 2.578125 0.796875q1.0 0.796875 1.28125 2.265625l-1.59375 0.234375q-0.234375 -0.96875 -0.8125 -1.453125q-0.578125 -0.5 -1.390625 -0.5q-1.234375 0 -2.015625 0.890625q-0.78125 0.890625 -0.78125 2.8125q0 1.953125 0.75 2.84375q0.75 0.875 1.953125 0.875q0.96875 0 1.609375 -0.59375q0.65625 -0.59375 0.828125 -1.828125zm3.015625 3.546875l0 -13.359375l1.640625 0l0 4.796875q1.140625 -1.328125 2.890625 -1.328125q1.078125 0 1.859375 0.421875q0.796875 0.421875 1.140625 1.171875q0.34375 0.75 0.34375 2.171875l0 6.125l-1.640625 0l0 -6.125q0 -1.234375 -0.53125 -1.796875q-0.53125 -0.5625 -1.515625 -0.5625q-0.71875 0 -1.359375 0.390625q-0.640625 0.375 -0.921875 1.015625q-0.265625 0.640625 -0.265625 1.78125l0 5.296875l-1.640625 0zm17.000732 -3.109375l1.6875 0.203125q-0.40625 1.484375 -1.484375 2.3125q-1.078125 0.8125 -2.765625 0.8125q-2.125 0 -3.375 -1.296875q-1.234375 -1.3125 -1.234375 -3.671875q0 -2.453125 1.25 -3.796875q1.265625 -1.34375 3.265625 -1.34375q1.9375 0 3.15625 1.328125q1.234375 1.3125 1.234375 3.703125q0 0.15625 0 0.4375l-7.21875 0q0.09375 1.59375 0.90625 2.453125q0.8125 0.84375 2.015625 0.84375q0.90625 0 1.546875 -0.46875q0.640625 -0.484375 1.015625 -1.515625zm-5.390625 -2.65625l5.40625 0q-0.109375 -1.21875 -0.625 -1.828125q-0.78125 -0.953125 -2.03125 -0.953125q-1.125 0 -1.90625 0.765625q-0.765625 0.75 -0.84375 2.015625z" fill-rule="nonzero"/><path fill="#010000" fill-opacity="0.0" d="m569.8283 319.68713l0 0l0 21.45285l0 0l0 -21.45285z" fill-rule="nonzero"/><path fill="#000099" d="m515.9001 337.78946l53.928223 0l0 1.6799927l-53.928223 0l0 -1.6799927z" fill-rule="nonzero"/><a xlink:href="https://www.google.com/url?q=https://github.com/vburlai/chat-design-demo/tree/master/cache&amp;sa=D&amp;ust=1593878914752000&amp;usg=AFQjCNFByGBtlelvCHl9hPexhn4DsqihKA" target="_blank" rel="noreferrer"><path fill="transparent" fill-opacity="0" d="m515.9001 318.65613l53.928223 0l0 22.399994l-53.928223 0l0 -22.399994z" fill-rule="nonzero"/></a><path fill="#cfe2f3" d="m662.8615 179.64839l0 0c0 -4.8126526 3.9014282 -8.714081 8.714111 -8.714081l66.28839 0c2.3110962 0 4.527588 0.91807556 6.161743 2.5522919c1.6342163 1.634201 2.5523071 3.8506622 2.5523071 6.161789l0 34.855286c0 4.812668 -3.9014282 8.714096 -8.71405 8.714096l-66.28839 0c-4.812683 0 -8.714111 -3.9014282 -8.714111 -8.714096z" fill-rule="evenodd"/><path stroke="#000000" stroke-width="1.0" stroke-linejoin="round" stroke-linecap="butt" d="m662.8615 179.64839l0 0c0 -4.8126526 3.9014282 -8.714081 8.714111 -8.714081l66.28839 0c2.3110962 0 4.527588 0.91807556 6.161743 2.5522919c1.6342163 1.634201 2.5523071 3.8506622 2.5523071 6.161789l0 34.855286c0 4.812668 -3.9014282 8.714096 -8.71405 8.714096l-66.28839 0c-4.812683 0 -8.714111 -3.9014282 -8.714111 -8.714096z" fill-rule="evenodd"/><path fill="#000000" fill-opacity="0.0" d="m675.6742 187.10703l58.091248 0l0 21.452866l-58.091248 0l0 -21.452866z" fill-rule="nonzero"/><path fill="#000099" d="m677.03357 203.99603l0 -13.359375l1.78125 0l0 11.78125l6.5625 0l0 1.578125l-8.34375 0zm9.641296 -4.84375q0 -2.6875 1.484375 -3.96875q1.25 -1.078125 3.046875 -1.078125q2.0 0 3.265625 1.3125q1.265625 1.296875 1.265625 3.609375q0 1.859375 -0.5625 2.9375q-0.5625 1.0625 -1.640625 1.65625q-1.0625 0.59375 -2.328125 0.59375q-2.03125 0 -3.28125 -1.296875q-1.25 -1.3125 -1.25 -3.765625zm1.6875 0q0 1.859375 0.796875 2.796875q0.8125 0.921875 2.046875 0.921875q1.21875 0 2.03125 -0.921875q0.8125 -0.9375 0.8125 -2.84375q0 -1.796875 -0.8125 -2.71875q-0.8125 -0.921875 -2.03125 -0.921875q-1.234375 0 -2.046875 0.921875q-0.796875 0.90625 -0.796875 2.765625zm8.985107 5.640625l1.59375 0.234375q0.109375 0.75 0.5625 1.078125q0.609375 0.453125 1.671875 0.453125q1.140625 0 1.75 -0.453125q0.625 -0.453125 0.84375 -1.265625q0.125 -0.5 0.109375 -2.109375q-1.0625 1.265625 -2.671875 1.265625q-2.0 0 -3.09375 -1.4375q-1.09375 -1.4375 -1.09375 -3.453125q0 -1.390625 0.5 -2.5625q0.515625 -1.171875 1.453125 -1.796875q0.953125 -0.640625 2.25 -0.640625q1.703125 0 2.8125 1.375l0 -1.15625l1.515625 0l0 8.359375q0 2.265625 -0.46875 3.203125q-0.453125 0.9375 -1.453125 1.484375q-0.984375 0.546875 -2.453125 0.546875q-1.71875 0 -2.796875 -0.78125q-1.0625 -0.765625 -1.03125 -2.34375zm1.359375 -5.8125q0 1.90625 0.75 2.78125q0.765625 0.875 1.90625 0.875q1.125 0 1.890625 -0.859375q0.765625 -0.875 0.765625 -2.734375q0 -1.78125 -0.796875 -2.671875q-0.78125 -0.90625 -1.890625 -0.90625q-1.09375 0 -1.859375 0.890625q-0.765625 0.875 -0.765625 2.625zm9.016357 5.8125l1.59375 0.234375q0.109375 0.75 0.5625 1.078125q0.609375 0.453125 1.671875 0.453125q1.140625 0 1.75 -0.453125q0.625 -0.453125 0.84375 -1.265625q0.125 -0.5 0.109375 -2.109375q-1.0625 1.265625 -2.671875 1.265625q-2.0 0 -3.09375 -1.4375q-1.09375 -1.4375 -1.09375 -3.453125q0 -1.390625 0.5 -2.5625q0.515625 -1.171875 1.453125 -1.796875q0.953125 -0.640625 2.25 -0.640625q1.703125 0 2.8125 1.375l0 -1.15625l1.515625 0l0 8.359375q0 2.265625 -0.46875 3.203125q-0.453125 0.9375 -1.453125 1.484375q-0.984375 0.546875 -2.453125 0.546875q-1.71875 0 -2.796875 -0.78125q-1.0625 -0.765625 -1.03125 -2.34375zm1.359375 -5.8125q0 1.90625 0.75 2.78125q0.765625 0.875 1.90625 0.875q1.125 0 1.890625 -0.859375q0.765625 -0.875 0.765625 -2.734375q0 -1.78125 -0.796875 -2.671875q-0.78125 -0.90625 -1.890625 -0.90625q-1.09375 0 -1.859375 0.890625q-0.765625 0.875 -0.765625 2.625zm15.953857 1.90625l1.6875 0.203125q-0.40625 1.484375 -1.484375 2.3125q-1.078125 0.8125 -2.765625 0.8125q-2.125 0 -3.375 -1.296875q-1.234375 -1.3125 -1.234375 -3.671875q0 -2.453125 1.25 -3.796875q1.265625 -1.34375 3.265625 -1.34375q1.9375 0 3.15625 1.328125q1.234375 1.3125 1.234375 3.703125q0 0.15625 0 0.4375l-7.21875 0q0.09375 1.59375 0.90625 2.453125q0.8125 0.84375 2.015625 0.84375q0.90625 0 1.546875 -0.46875q0.640625 -0.484375 1.015625 -1.515625zm-5.390625 -2.65625l5.40625 0q-0.109375 -1.21875 -0.625 -1.828125q-0.78125 -0.953125 -2.03125 -0.953125q-1.125 0 -1.90625 0.765625q-0.765625 0.75 -0.84375 2.015625zm9.125671 5.765625l0 -9.671875l1.46875 0l0 1.46875q0.5625 -1.03125 1.03125 -1.359375q0.484375 -0.328125 1.0625 -0.328125q0.828125 0 1.6875 0.53125l-0.5625 1.515625q-0.609375 -0.359375 -1.203125 -0.359375q-0.546875 0 -0.96875 0.328125q-0.421875 0.328125 -0.609375 0.890625q-0.28125 0.875 -0.28125 1.921875l0 5.0625l-1.625 0z" fill-rule="nonzero"/><path fill="#010000" fill-opacity="0.0" d="m733.76544 187.10703l0 0l0 21.452866l0 0l0 -21.452866z" fill-rule="nonzero"/><path fill="#000099" d="m675.6742 205.20937l58.091248 0l0 1.6800079l-58.091248 0l0 -1.6800079z" fill-rule="nonzero"/><a xlink:href="https://www.google.com/url?q=https://github.com/vburlai/chat-design-demo/tree/master/logger&amp;sa=D&amp;ust=1593878914755000&amp;usg=AFQjCNF_VkNIkd-0XjO1rj0tSkWDpfdwQg" target="_blank" rel="noreferrer"><path fill="transparent" fill-opacity="0" d="m675.6742 186.07603l58.091248 0l0 22.399994l-58.091248 0l0 -22.399994z" fill-rule="nonzero"/></a><path fill="#000000" fill-opacity="0.0" d="m581.3989 196.71916l81.44885 0.3464508" fill-rule="evenodd"/><path stroke="#000000" stroke-width="1.0" stroke-linejoin="round" stroke-linecap="butt" d="m581.3989 196.71916l75.44891 0.32092285" fill-rule="evenodd"/><path fill="#000000" stroke="#000000" stroke-width="1.0" stroke-linecap="butt" d="m656.8408 198.69182l4.545044 -1.6324158l-4.531006 -1.6710205z" fill-rule="evenodd"/><path fill="#cfe2f3" d="m651.0157 296.7743l0 0c0 6.0533752 24.141418 10.960602 53.921265 10.960602c29.779907 0 53.921265 -4.9072266 53.921265 -10.960602l0 65.76376c0 6.053406 -24.141357 10.960632 -53.921265 10.960632c-29.779846 0 -53.921265 -4.9072266 -53.921265 -10.960632z" fill-rule="evenodd"/><path fill="#e2edf7" d="m651.0157 296.7743l0 0c0 -6.053406 24.141418 -10.960632 53.921265 -10.960632c29.779907 0 53.921265 4.9072266 53.921265 10.960632l0 0c0 6.0533752 -24.141357 10.960602 -53.921265 10.960602c-29.779846 0 -53.921265 -4.9072266 -53.921265 -10.960602z" fill-rule="evenodd"/><path fill="#000000" fill-opacity="0.0" d="m758.8582 296.7743l0 0c0 6.0533752 -24.141357 10.960602 -53.921265 10.960602c-29.779846 0 -53.921265 -4.9072266 -53.921265 -10.960602l0 0c0 -6.053406 24.141418 -10.960632 53.921265 -10.960632c29.779907 0 53.921265 4.9072266 53.921265 10.960632l0 65.76376c0 6.053406 -24.141357 10.960632 -53.921265 10.960632c-29.779846 0 -53.921265 -4.9072266 -53.921265 -10.960632l0 -65.76376" fill-rule="evenodd"/><path stroke="#000000" stroke-width="1.0" stroke-linejoin="round" stroke-linecap="butt" d="m758.8582 296.7743l0 0c0 6.0533752 -24.141357 10.960602 -53.921265 10.960602c-29.779846 0 -53.921265 -4.9072266 -53.921265 -10.960602l0 0c0 -6.053406 24.141418 -10.960632 53.921265 -10.960632c29.779907 0 53.921265 4.9072266 53.921265 10.960632l0 65.76376c0 6.053406 -24.141357 10.960632 -53.921265 10.960632c-29.779846 0 -53.921265 -4.9072266 -53.921265 -10.960632l0 -65.76376" fill-rule="evenodd"/><path fill="#000000" fill-opacity="0.0" d="m691.9787 325.16748l25.916504 0l0 21.45285l-25.916504 0l0 -21.45285z" fill-rule="nonzero"/><path fill="#000099" d="m693.4162 342.0565l0 -13.359375l4.609375 0q1.546875 0 2.375 0.203125q1.140625 0.25 1.953125 0.953125q1.0625 0.890625 1.578125 2.28125q0.53125 1.390625 0.53125 3.171875q0 1.515625 -0.359375 2.703125q-0.359375 1.171875 -0.921875 1.9375q-0.546875 0.765625 -1.203125 1.21875q-0.65625 0.4375 -1.59375 0.671875q-0.9375 0.21875 -2.140625 0.21875l-4.828125 0zm1.765625 -1.578125l2.859375 0q1.3125 0 2.0625 -0.234375q0.75 -0.25 1.203125 -0.703125q0.625 -0.625 0.96875 -1.6875q0.359375 -1.0625 0.359375 -2.578125q0 -2.09375 -0.6875 -3.21875q-0.6875 -1.125 -1.671875 -1.5q-0.703125 -0.28125 -2.28125 -0.28125l-2.8125 0l0 10.203125zm11.629211 1.578125l0 -13.359375l5.015625 0q1.53125 0 2.453125 0.40625q0.921875 0.40625 1.4375 1.25q0.53125 0.84375 0.53125 1.765625q0 0.859375 -0.46875 1.625q-0.453125 0.75 -1.390625 1.203125q1.203125 0.359375 1.859375 1.21875q0.65625 0.859375 0.65625 2.015625q0 0.9375 -0.40625 1.75q-0.390625 0.796875 -0.984375 1.234375q-0.578125 0.4375 -1.453125 0.671875q-0.875 0.21875 -2.15625 0.21875l-5.09375 0zm1.78125 -7.75l2.875 0q1.1875 0 1.6875 -0.140625q0.671875 -0.203125 1.015625 -0.671875q0.34375 -0.46875 0.34375 -1.171875q0 -0.65625 -0.328125 -1.15625q-0.3125 -0.515625 -0.90625 -0.703125q-0.59375 -0.1875 -2.03125 -0.1875l-2.65625 0l0 4.03125zm0 6.171875l3.3125 0q0.859375 0 1.203125 -0.0625q0.609375 -0.109375 1.015625 -0.359375q0.421875 -0.265625 0.6875 -0.75q0.265625 -0.484375 0.265625 -1.125q0 -0.75 -0.390625 -1.296875q-0.375 -0.546875 -1.0625 -0.765625q-0.671875 -0.234375 -1.953125 -0.234375l-3.078125 0l0 4.59375z" fill-rule="nonzero"/><path fill="#010000" fill-opacity="0.0" d="m717.8952 325.16748l0 0l0 21.45285l0 0l0 -21.45285z" fill-rule="nonzero"/><path fill="#000099" d="m691.9787 343.2698l25.916504 0l0 1.6799927l-25.916504 0l0 -1.6799927z" fill-rule="nonzero"/><a xlink:href="https://www.google.com/url?q=https://github.com/vburlai/chat-design-demo/tree/master/db&amp;sa=D&amp;ust=1593878914757000&amp;usg=AFQjCNFA6yy-WDC2R5pOvRlhqbQFyAYh6w" target="_blank" rel="noreferrer"><path fill="transparent" fill-opacity="0" d="m691.9787 324.13647l25.916504 0l0 22.399994l-25.916504 0l0 -22.399994z" fill-rule="nonzero"/></a><path fill="#000000" fill-opacity="0.0" d="m704.7198 223.21777l0.22052002 62.582672" fill-rule="evenodd"/><path stroke="#000000" stroke-width="1.0" stroke-linejoin="round" stroke-linecap="butt" d="m704.7198 223.21776l0.19934082 56.582718" fill-rule="evenodd"/><path fill="#000000" stroke="#000000" stroke-width="1.0" stroke-linecap="butt" d="m703.26746 279.8063l1.6676636 4.532257l1.6357422 -4.543915z" fill-rule="evenodd"/><path fill="#000000" fill-opacity="0.0" d="m651.0157 329.65616l-66.299194 0" fill-rule="evenodd"/><path stroke="#000000" stroke-width="1.0" stroke-linejoin="round" stroke-linecap="butt" d="m651.0157 329.65616l-60.299194 0" fill-rule="evenodd"/><path fill="#000000" stroke="#000000" stroke-width="1.0" stroke-linecap="butt" d="m590.7165 328.00443l-4.538086 1.6517334l4.538086 1.6517334z" fill-rule="evenodd"/><path fill="#000000" fill-opacity="0.0" d="m501.00592 329.65613l-101.322845 -52.97638" fill-rule="evenodd"/><path stroke="#000000" stroke-width="1.0" stroke-linejoin="round" stroke-linecap="butt" d="m501.00592 329.65613l-96.00577 -50.19635" fill-rule="evenodd"/><path fill="#000000" stroke="#000000" stroke-width="1.0" stroke-linecap="butt" d="m405.76547 277.99603l-4.7868958 -0.638916l3.2562866 3.5664062z" fill-rule="evenodd"/><path fill="#cfe2f3" d="m794.4593 296.7743l0 0c0 6.0533752 24.141357 10.960602 53.921265 10.960602c29.779846 0 53.921265 -4.9072266 53.921265 -10.960602l0 65.76376c0 6.053406 -24.141418 10.960632 -53.921265 10.960632c-29.779907 0 -53.921265 -4.9072266 -53.921265 -10.960632z" fill-rule="evenodd"/><path fill="#e2edf7" d="m794.4593 296.7743l0 0c0 -6.053406 24.141357 -10.960632 53.921265 -10.960632c29.779846 0 53.921265 4.9072266 53.921265 10.960632l0 0c0 6.0533752 -24.141418 10.960602 -53.921265 10.960602c-29.779907 0 -53.921265 -4.9072266 -53.921265 -10.960602z" fill-rule="evenodd"/><path fill="#000000" fill-opacity="0.0" d="m902.3018 296.7743l0 0c0 6.0533752 -24.141418 10.960602 -53.921265 10.960602c-29.779907 0 -53.921265 -4.9072266 -53.921265 -10.960602l0 0c0 -6.053406 24.141357 -10.960632 53.921265 -10.960632c29.779846 0 53.921265 4.9072266 53.921265 10.960632l0 65.76376c0 6.053406 -24.141418 10.960632 -53.921265 10.960632c-29.779907 0 -53.921265 -4.9072266 -53.921265 -10.960632l0 -65.76376" fill-rule="evenodd"/><path stroke="#000000" stroke-width="1.0" stroke-linejoin="round" stroke-linecap="butt" d="m902.3018 296.7743l0 0c0 6.0533752 -24.141418 10.960602 -53.921265 10.960602c-29.779907 0 -53.921265 -4.9072266 -53.921265 -10.960602l0 0c0 -6.053406 24.141357 -10.960632 53.921265 -10.960632c29.779846 0 53.921265 4.9072266 53.921265 10.960632l0 65.76376c0 6.053406 -24.141418 10.960632 -53.921265 10.960632c-29.779907 0 -53.921265 -4.9072266 -53.921265 -10.960632l0 -65.76376" fill-rule="evenodd"/><path fill="#000000" fill-opacity="0.0" d="m805.3518 325.16748l86.057434 0l0 21.45285l-86.057434 0l0 -21.45285z" fill-rule="nonzero"/><path fill="#000099" d="m806.7893 342.0565l0 -13.359375l4.609375 0q1.546875 0 2.375 0.203125q1.140625 0.25 1.953125 0.953125q1.0625 0.890625 1.578125 2.28125q0.53125 1.390625 0.53125 3.171875q0 1.515625 -0.359375 2.703125q-0.359375 1.171875 -0.921875 1.9375q-0.546875 0.765625 -1.203125 1.21875q-0.65625 0.4375 -1.59375 0.671875q-0.9375 0.21875 -2.140625 0.21875l-4.828125 0zm1.765625 -1.578125l2.859375 0q1.3125 0 2.0625 -0.234375q0.75 -0.25 1.203125 -0.703125q0.625 -0.625 0.96875 -1.6875q0.359375 -1.0625 0.359375 -2.578125q0 -2.09375 -0.6875 -3.21875q-0.6875 -1.125 -1.671875 -1.5q-0.703125 -0.28125 -2.28125 -0.28125l-2.8125 0l0 10.203125zm11.629211 1.578125l0 -13.359375l5.015625 0q1.53125 0 2.453125 0.40625q0.921875 0.40625 1.4375 1.25q0.53125 0.84375 0.53125 1.765625q0 0.859375 -0.46875 1.625q-0.453125 0.75 -1.390625 1.203125q1.203125 0.359375 1.859375 1.21875q0.65625 0.859375 0.65625 2.015625q0 0.9375 -0.40625 1.75q-0.390625 0.796875 -0.984375 1.234375q-0.578125 0.4375 -1.453125 0.671875q-0.875 0.21875 -2.15625 0.21875l-5.09375 0zm1.78125 -7.75l2.875 0q1.1875 0 1.6875 -0.140625q0.671875 -0.203125 1.015625 -0.671875q0.34375 -0.46875 0.34375 -1.171875q0 -0.65625 -0.328125 -1.15625q-0.3125 -0.515625 -0.90625 -0.703125q-0.59375 -0.1875 -2.03125 -0.1875l-2.65625 0l0 4.03125zm0 6.171875l3.3125 0q0.859375 0 1.203125 -0.0625q0.609375 -0.109375 1.015625 -0.359375q0.421875 -0.265625 0.6875 -0.75q0.265625 -0.484375 0.265625 -1.125q0 -0.75 -0.390625 -1.296875q-0.375 -0.546875 -1.0625 -0.765625q-0.671875 -0.234375 -1.953125 -0.234375l-3.078125 0l0 4.59375zm15.705017 1.578125l0 -9.671875l1.46875 0l0 1.46875q0.5625 -1.03125 1.03125 -1.359375q0.484375 -0.328125 1.0625 -0.328125q0.828125 0 1.6875 0.53125l-0.5625 1.515625q-0.609375 -0.359375 -1.203125 -0.359375q-0.546875 0 -0.96875 0.328125q-0.421875 0.328125 -0.609375 0.890625q-0.28125 0.875 -0.28125 1.921875l0 5.0625l-1.625 0zm12.8532715 -3.109375l1.6875 0.203125q-0.40625 1.484375 -1.484375 2.3125q-1.078125 0.8125 -2.765625 0.8125q-2.125 0 -3.375 -1.296875q-1.234375 -1.3125 -1.234375 -3.671875q0 -2.453125 1.25 -3.796875q1.265625 -1.34375 3.265625 -1.34375q1.9375 0 3.15625 1.328125q1.234375 1.3125 1.234375 3.703125q0 0.15625 0 0.4375l-7.21875 0q0.09375 1.59375 0.90625 2.453125q0.8125 0.84375 2.015625 0.84375q0.90625 0 1.546875 -0.46875q0.640625 -0.484375 1.015625 -1.515625zm-5.390625 -2.65625l5.40625 0q-0.109375 -1.21875 -0.625 -1.828125q-0.78125 -0.953125 -2.03125 -0.953125q-1.125 0 -1.90625 0.765625q-0.765625 0.75 -0.84375 2.015625zm9.141357 9.46875l0 -13.375l1.484375 0l0 1.25q0.53125 -0.734375 1.1875 -1.09375q0.671875 -0.375 1.625 -0.375q1.234375 0 2.171875 0.640625q0.953125 0.625 1.4375 1.796875q0.484375 1.15625 0.484375 2.546875q0 1.484375 -0.53125 2.671875q-0.53125 1.1875 -1.546875 1.828125q-1.015625 0.625 -2.140625 0.625q-0.8125 0 -1.46875 -0.34375q-0.65625 -0.34375 -1.0625 -0.875l0 4.703125l-1.640625 0zm1.484375 -8.484375q0 1.859375 0.75 2.765625q0.765625 0.890625 1.828125 0.890625q1.09375 0 1.875 -0.921875q0.78125 -0.9375 0.78125 -2.875q0 -1.84375 -0.765625 -2.765625q-0.75 -0.921875 -1.8125 -0.921875q-1.046875 0 -1.859375 0.984375q-0.796875 0.96875 -0.796875 2.84375zm8.844482 4.78125l0 -13.359375l1.640625 0l0 13.359375l-1.640625 0zm4.1917114 -11.46875l0 -1.890625l1.640625 0l0 1.890625l-1.640625 0zm0 11.46875l0 -9.671875l1.640625 0l0 9.671875l-1.640625 0zm10.457275 -3.546875l1.609375 0.21875q-0.265625 1.65625 -1.359375 2.609375q-1.078125 0.9375 -2.671875 0.9375q-1.984375 0 -3.1875 -1.296875q-1.203125 -1.296875 -1.203125 -3.71875q0 -1.578125 0.515625 -2.75q0.515625 -1.171875 1.578125 -1.75q1.0625 -0.59375 2.3125 -0.59375q1.578125 0 2.578125 0.796875q1.0 0.796875 1.28125 2.265625l-1.59375 0.234375q-0.234375 -0.96875 -0.8125 -1.453125q-0.578125 -0.5 -1.390625 -0.5q-1.234375 0 -2.015625 0.890625q-0.78125 0.890625 -0.78125 2.8125q0 1.953125 0.75 2.84375q0.75 0.875 1.953125 0.875q0.96875 0 1.609375 -0.59375q0.65625 -0.59375 0.828125 -1.828125zm9.328125 2.359375q-0.921875 0.765625 -1.765625 1.09375q-0.828125 0.3125 -1.796875 0.3125q-1.59375 0 -2.453125 -0.78125q-0.859375 -0.78125 -0.859375 -1.984375q0 -0.71875 0.328125 -1.296875q0.328125 -0.59375 0.84375 -0.9375q0.53125 -0.359375 1.1875 -0.546875q0.46875 -0.125 1.453125 -0.25q1.984375 -0.234375 2.921875 -0.5625q0.015625 -0.34375 0.015625 -0.421875q0 -1.0 -0.46875 -1.421875q-0.625 -0.546875 -1.875 -0.546875q-1.15625 0 -1.703125 0.40625q-0.546875 0.40625 -0.8125 1.421875l-1.609375 -0.21875q0.21875 -1.015625 0.71875 -1.640625q0.5 -0.640625 1.453125 -0.984375q0.953125 -0.34375 2.1875 -0.34375q1.25 0 2.015625 0.296875q0.78125 0.28125 1.140625 0.734375q0.375 0.4375 0.515625 1.109375q0.078125 0.421875 0.078125 1.515625l0 2.1875q0 2.28125 0.109375 2.890625q0.109375 0.59375 0.40625 1.15625l-1.703125 0q-0.265625 -0.515625 -0.328125 -1.1875zm-0.140625 -3.671875q-0.890625 0.375 -2.671875 0.625q-1.015625 0.140625 -1.4375 0.328125q-0.421875 0.1875 -0.65625 0.53125q-0.21875 0.34375 -0.21875 0.78125q0 0.65625 0.5 1.09375q0.5 0.4375 1.453125 0.4375q0.9375 0 1.671875 -0.40625q0.75 -0.421875 1.09375 -1.140625q0.265625 -0.5625 0.265625 -1.640625l0 -0.609375z" fill-rule="nonzero"/><path fill="#010000" fill-opacity="0.0" d="m891.40924 325.16748l0 0l0 21.45285l0 0l0 -21.45285z" fill-rule="nonzero"/><path fill="#000099" d="m805.3518 343.2698l86.057434 0l0 1.6799927l-86.057434 0l0 -1.6799927z" fill-rule="nonzero"/><a xlink:href="https://www.google.com/url?q=https://github.com/vburlai/chat-design-demo/tree/master/db-replica&amp;sa=D&amp;ust=1593878914761000&amp;usg=AFQjCNES1TI9XS3myq1yyGIskQPfS5E9iA" target="_blank" rel="noreferrer"><path fill="transparent" fill-opacity="0" d="m805.3518 324.13647l86.057434 0l0 22.399994l-86.057434 0l0 -22.399994z" fill-rule="nonzero"/></a><path fill="#000000" fill-opacity="0.0" d="m758.8582 329.65616l35.590576 0" fill-rule="evenodd"/><path stroke="#000000" stroke-width="1.0" stroke-linejoin="round" stroke-linecap="butt" d="m758.8583 329.65616l29.590515 0" fill-rule="evenodd"/><path fill="#000000" stroke="#000000" stroke-width="1.0" stroke-linecap="butt" d="m788.4488 331.3079l4.538147 -1.6517334l-4.538147 -1.6517334z" fill-rule="evenodd"/></g></svg>